<?xml version="1.0" encoding="UTF-8" standalone="no"?>
<svg
   xmlns:dc="http://purl.org/dc/elements/1.1/"
   xmlns:cc="http://creativecommons.org/ns#"
   xmlns:rdf="http://www.w3.org/1999/02/22-rdf-syntax-ns#"
   xmlns:svg="http://www.w3.org/2000/svg"
   xmlns="http://www.w3.org/2000/svg"
   xmlns:sodipodi="http://sodipodi.sourceforge.net/DTD/sodipodi-0.dtd"
   xmlns:inkscape="http://www.inkscape.org/namespaces/inkscape"
   version="1.1"
   id="svg2"
   xml:space="preserve"
   width="21.84"
   height="24.799999"
   viewBox="0 0 21.84 24.799999"
   sodipodi:docname="artist.eps"><metadata
     id="metadata8"><rdf:RDF><cc:Work
         rdf:about=""><dc:format>image/svg+xml</dc:format><dc:type
           rdf:resource="http://purl.org/dc/dcmitype/StillImage" /></cc:Work></rdf:RDF></metadata><defs
     id="defs6"><clipPath
       clipPathUnits="userSpaceOnUse"
       id="clipPath20"><path
         d="M 0,0 H 163.797 V 185.965 H 0 Z"
         id="path18" /></clipPath><clipPath
       clipPathUnits="userSpaceOnUse"
       id="clipPath26"><path
         d="m 90.4844,175.926 c -0.0196,0.062 -0.0391,0.129 -0.0469,0.195 -0.1953,0.828 -9.2383,-1.387 -10.1094,-1.68 -3.4765,-1.168 -6.5859,-2.988 -9.3086,-5.398 -5.2539,-4.648 -8.9336,-11.164 -9.3164,-18.172 -0.289,-5.211 -0.1093,-10.433 -0.1445,-15.648 -0.0195,-3.399 -1.2773,-5.926 -5.0664,-6.325 -3.293,-0.351 -4.3477,-2.582 -3.3828,-4.992 2.5429,-6.347 6.0586,-12.254 9.164,-18.343 3.1914,-6.27 5.7032,-12.8599 7.5079,-19.6411 1.2265,-4.5977 2.1445,-9.5586 1.0546,-14.2656 C 69.7695,67.0469 66.9258,64.7617 62.6094,63.0352 52.3086,58.9023 42.0469,54.6836 31.7461,50.5547 23.2344,47.1445 14.4102,44.2344 10.9063,35.0078 8.13672,27.7031 9.79297,19.5977 9.34375,11.8125 28.0898,11.082 46.8438,10.6406 65.5977,10.5039 69,10.4766 72.9531,10.1914 74.8945,7.45703 74.0898,5.17188 71.0469,4.72266 68.582,4.67578 47.7383,4.22656 26.8984,3.78516 6.05078,3.33594 c -1.5664,-0.02735 -3.3125,0 -4.4375,1.07422 C 0.5625,5.41797 0.417969,7 0.347656,8.44531 0.152344,12.4961 0.0429688,16.5586 0.0078125,20.6211 c -0.078125,8.9766 0.4726565,18.625 6.0703175,25.7227 4.39847,5.5781 11.22267,8.6718 17.78127,11.5546 0,0.711 8.9804,3.9532 10.0156,4.4024 3.4609,1.5234 6.9219,3.0469 10.3867,4.582 3.4063,1.4922 6.8281,2.9688 10.2383,4.4727 2.4102,1.0742 4.7734,2.6054 5.6055,5.2539 0.6836,2.1953 0.4843,4.5586 0.0625,6.8164 -2.1367,11.5312 -9.3516,21.3552 -14.4922,31.7072 -3.5547,7.148 -5.9258,16.449 2.3867,21.34 2.9219,1.718 3.3008,3.847 3.1172,6.644 -1.6445,25.176 18.793,44.957 44.4805,42.664 3.9453,-0.351 5.0508,-3.105 4.6488,-6.445 -0.391,-3.215 0.879,-4.582 3.957,-5.766 11.972,-4.613 20.859,-15.269 20.906,-28.257 0.012,-2.649 -0.313,-5.477 1.008,-7.797 1.211,-2.145 3.574,-3.387 5.164,-5.278 3.996,-4.742 2.109,-11.976 -1.121,-17.246 -4.094,-6.672 -7.227,-12.262 -9.973,-19.5857 -1.328,-3.5352 -10.477,-13.3985 -8.133,-3.9649 1.66,6.6836 3.36,13.5316 6.856,19.5626 2.859,4.949 7.488,8.351 6.679,14.711 -0.625,4.906 -5.793,3.269 -7.902,6.765 -1.766,2.942 -0.77,7.223 -0.82,10.442 -0.184,12.148 -8.797,18.187 -19.0706,22.84 -5.2149,2.363 -6.1719,5.054 -7.375,10.164 z"
         id="path24" /></clipPath><linearGradient
       x1="0"
       y1="0"
       x2="1"
       y2="0"
       gradientUnits="userSpaceOnUse"
       gradientTransform="matrix(102.409,177.377,177.377,-102.409,13.9511,-2.81501)"
       spreadMethod="pad"
       id="linearGradient36"><stop
         style="stop-opacity:1;stop-color:#50ade5"
         offset="0"
         id="stop28" /><stop
         style="stop-opacity:1;stop-color:#50ade5"
         offset="0.117318"
         id="stop30" /><stop
         style="stop-opacity:1;stop-color:#87cf3f"
         offset="0.678771"
         id="stop32" /><stop
         style="stop-opacity:1;stop-color:#bfe25a"
         offset="1"
         id="stop34" /></linearGradient><clipPath
       clipPathUnits="userSpaceOnUse"
       id="clipPath46"><path
         d="m 146.805,20.6406 c 4.101,-0.0781 9.023,3.2032 9.304,6.211 0.293,3.0195 -4.902,7.0234 -9.101,7.0429 -4.336,0.0078 -7.957,-2.9492 -8.016,-6.5742 -0.07,-3.6992 3.301,-6.582 7.813,-6.6797 z M 105.379,9.35156 c 4.043,-0.0664 8.914,3.33204 9.16,6.38674 0.234,2.9219 -4.551,6.7109 -8.664,6.8672 -4.578,0.164 -8.4062,-2.8438 -8.4062,-6.6211 -0.0118,-3.6328 3.4842,-6.56252 7.9102,-6.63284 z m 6.687,20.99614 c 0,10.5468 0.207,20.8007 -0.097,31.0351 -0.137,4.7461 1.496,7.2774 6.25,8.4883 12.441,3.1445 24.797,6.6484 37.207,9.9102 6.242,1.6328 8.633,-0.1758 8.351,-6.3165 -0.781,-16.5546 -1.613,-33.1054 -2.531,-49.6484 -0.351,-6.2305 -6.601,-11.7773 -13.758,-12.5117 -6.984,-0.7109 -13.898,2.6758 -17.05,8.5273 -3.176,5.8868 -2.715,11.7071 1.464,16.875 4.473,5.5274 10.489,7.6172 17.625,6.0157 1.672,-0.3829 3.293,-0.9493 4.68,-1.3594 0,8.9648 0,17.7656 0,27.4336 -5.227,-1.3594 -9.621,-2.4805 -14.016,-3.6446 -4.812,-1.2695 -9.597,-2.6367 -14.421,-3.8359 -2.247,-0.5586 -3.477,-1.4062 -3.594,-4.043 C 121.492,42.6055 120.543,27.957 119.754,13.2891 119.441,7.46875 115.055,2.4375 108.504,0.640625 101.434,-1.30078 93.9023,1.27734 89.7031,7.06641 85.8359,12.3984 85.8086,19.4414 89.625,24.8203 c 4.1523,5.8516 11.633,8.5078 18.73,6.6211 1.379,-0.3594 2.727,-0.8086 3.711,-1.0937 z"
         id="path44" /></clipPath><linearGradient
       x1="0"
       y1="0"
       x2="1"
       y2="0"
       gradientUnits="userSpaceOnUse"
       gradientTransform="matrix(50.2119,86.9695,86.9695,-50.2119,108.521,-5.484)"
       spreadMethod="pad"
       id="linearGradient56"><stop
         style="stop-opacity:1;stop-color:#50ade5"
         offset="0"
         id="stop48" /><stop
         style="stop-opacity:1;stop-color:#50ade5"
         offset="0.117318"
         id="stop50" /><stop
         style="stop-opacity:1;stop-color:#87cf3f"
         offset="0.678771"
         id="stop52" /><stop
         style="stop-opacity:1;stop-color:#bfe25a"
         offset="1"
         id="stop54" /></linearGradient></defs><sodipodi:namedview
     pagecolor="#ffffff"
     bordercolor="#666666"
     borderopacity="1"
     objecttolerance="10"
     gridtolerance="10"
     guidetolerance="10"
     inkscape:pageopacity="0"
     inkscape:pageshadow="2"
     inkscape:window-width="640"
     inkscape:window-height="480"
     id="namedview4" /><g
     id="g10"
     inkscape:groupmode="layer"
     inkscape:label="ink_ext_XXXXXX"
     transform="matrix(1.3333333,0,0,-1.3333333,0,24.8)"><g
       id="g12"
       transform="scale(0.1)"><g
         id="g14"><g
           id="g16"
           clip-path="url(#clipPath20)"><g
             id="g22"
             clip-path="url(#clipPath26)"><path
               d="M 2,3 V 4 H 1 V 5 H 0 v 30 h 1 v 3 h 1 v 4 h 1 v 2 h 1 v 1 h 1 v 2 h 1 v 1 h 1 v 1 h 1 v 1 h 2 v 1 h 1 v 1 h 1 v 1 h 1 v 1 h 2 v 1 h 2 v 1 h 2 v 1 h 2 v 1 h 2 v 1 h 2 v 1 h 3 v 1 h 2 v 1 h 3 v 1 h 2 v 1 h 2 v 1 h 3 v 1 h 2 v 1 h 2 v 1 h 2 v 1 h 3 v 1 h 2 v 1 h 2 v 1 h 2 v 1 h 2 v 1 h 1 v 1 h 1 v 2 h 1 v 7 h -1 v 3 h -1 v 3 h -1 v 3 h -1 v 2 h -1 v 2 h -1 v 2 h -1 v 2 h -1 v 2 h -1 v 2 h -1 v 2 h -1 v 1 h -1 v 2 h -1 v 2 h -1 v 2 h -1 v 2 h -1 v 3 h -1 v 4 h -1 v 7 h 1 v 3 h 1 v 1 h 1 v 1 h 1 v 1 h 1 v 1 h 1 v 1 h 1 v 1 h 1 v 2 h 1 v 13 h 1 v 4 h 1 v 4 h 1 v 1 h 1 v 2 h 1 v 2 h 1 v 2 h 1 v 1 h 1 v 1 h 1 v 2 h 1 v 1 h 1 v 1 h 1 v 1 h 1 v 1 h 2 v 1 h 1 v 1 h 1 v 1 h 2 v 1 h 2 v 1 h 2 v 1 h 2 v 1 h 3 v 1 h 4 v 1 h 16 v -1 h 1 v -2 h 1 v -7 h 1 v -1 h 2 v -1 h 2 v -1 h 2 v -1 h 2 v -1 h 1 v -1 h 2 v -1 h 1 v -1 h 1 v -1 h 1 v -1 h 1 v -1 h 1 v -1 h 1 v -1 h 1 v -1 h 1 v -2 h 1 v -2 h 1 v -2 h 1 v -3 h 1 v -4 h 1 v -11 h 1 v -1 h 1 v -1 h 1 v -1 h 1 v -1 h 1 v -1 h 1 v -1 h 1 v -2 h 1 v -9 h -1 v -3 h -1 v -2 h -1 v -2 h -1 v -2 h -1 v -1 h -1 v -2 h -1 v -2 h -1 v -2 h -1 v -2 h -1 v -2 h -1 v -2 h -1 v -2 h -1 v -3 h -1 v -1 h -1 v -2 h -1 v -1 h -1 v -1 h -1 v -1 h -2 v -1 h -2 v 1 h -1 v 3 h 1 v 4 h 1 v 4 h 1 v 3 h 1 v 3 h 1 v 2 h 1 v 3 h 1 v 2 h 1 v 1 h 1 v 2 h 1 v 1 h 1 v 1 h 1 v 2 h 1 v 2 h 1 v 6 h -1 v 1 h -1 v 1 h -2 v 1 h -2 v 1 h -1 v 1 h -1 v 2 h -1 v 14 h -1 v 3 h -1 v 1 h -1 v 2 h -1 v 1 h -1 v 2 h -1 v 1 h -2 v 1 h -1 v 1 h -1 v 1 h -1 v 1 h -2 v 1 h -2 v 1 h -2 v 1 h -2 v 1 h -2 v 1 h -1 v 1 h -1 v 1 h -1 v 2 h -1 v 2 h -1 v 3 h -2 v -1 h -5 v -1 h -3 v -1 h -2 v -1 h -2 v -1 h -2 v -1 h -1 v -1 h -2 v -1 h -1 v -2 h -1 v -1 h -1 v -1 h -1 v -2 h -1 v -1 h -1 v -2 h -1 v -3 h -1 v -3 h -1 v -21 h -1 v -2 h -1 v -1 h -2 v -1 h -3 v -1 h -1 v -1 h -1 v -1 h 1 v -3 h 1 v -2 h 1 v -2 h 1 v -2 h 1 v -2 h 1 v -2 h 1 v -2 h 1 v -1 h 1 v -2 h 1 v -2 h 1 v -3 h 1 v -3 h 1 v -2 h 1 v -3 h 1 v -2 h 1 v -3 h 1 v -3 h 1 v -6 h 1 V 72 H 71 V 69 H 70 V 67 H 69 V 66 H 68 V 65 H 67 V 64 H 65 V 63 H 63 V 62 H 61 V 61 H 58 V 60 H 56 V 59 H 53 V 58 H 51 V 57 H 48 V 56 H 46 V 55 H 43 V 54 H 41 V 53 H 38 V 52 H 36 V 51 H 33 V 50 H 31 V 49 H 28 V 48 H 26 V 47 H 24 V 46 H 22 V 45 H 20 V 44 H 19 V 43 H 18 V 42 H 16 V 41 H 15 V 40 H 14 V 38 H 13 V 37 H 12 V 35 H 11 V 31 H 10 V 12 h 31 v -1 h 30 v -1 h 3 V 9 h 1 V 6 H 74 V 5 H 72 V 4 H 38 V 3"
               style="fill:url(#linearGradient36);fill-opacity:1;fill-rule:nonzero;stroke:none"
               id="path38" /></g></g></g><g
         id="g40"><g
           id="g42"
           clip-path="url(#clipPath46)"><path
             d="m 146.805,20.6406 c 4.101,-0.0781 9.023,3.2032 9.304,6.211 0.293,3.0195 -4.902,7.0234 -9.101,7.0429 -4.336,0.0078 -7.957,-2.9492 -8.016,-6.5742 -0.07,-3.6992 3.301,-6.582 7.813,-6.6797 z M 105.379,9.35156 c 4.043,-0.0664 8.914,3.33204 9.16,6.38674 0.234,2.9219 -4.551,6.7109 -8.664,6.8672 -4.578,0.164 -8.4062,-2.8438 -8.4062,-6.6211 -0.0118,-3.6328 3.4842,-6.56252 7.9102,-6.63284 z m 6.687,20.99614 c 0,10.5468 0.207,20.8007 -0.097,31.0351 -0.137,4.7461 1.496,7.2774 6.25,8.4883 12.441,3.1445 24.797,6.6484 37.207,9.9102 6.242,1.6328 8.633,-0.1758 8.351,-6.3165 -0.781,-16.5546 -1.613,-33.1054 -2.531,-49.6484 -0.351,-6.2305 -6.601,-11.7773 -13.758,-12.5117 -6.984,-0.7109 -13.898,2.6758 -17.05,8.5273 -3.176,5.8868 -2.715,11.7071 1.464,16.875 4.473,5.5274 10.489,7.6172 17.625,6.0157 1.672,-0.3829 3.293,-0.9493 4.68,-1.3594 0,8.9648 0,17.7656 0,27.4336 -5.227,-1.3594 -9.621,-2.4805 -14.016,-3.6446 -4.812,-1.2695 -9.597,-2.6367 -14.421,-3.8359 -2.247,-0.5586 -3.477,-1.4062 -3.594,-4.043 C 121.492,42.6055 120.543,27.957 119.754,13.2891 119.441,7.46875 115.055,2.4375 108.504,0.640625 101.434,-1.30078 93.9023,1.27734 89.7031,7.06641 85.8359,12.3984 85.8086,19.4414 89.625,24.8203 c 4.1523,5.8516 11.633,8.5078 18.73,6.6211 1.379,-0.3594 2.727,-0.8086 3.711,-1.0937"
             style="fill:url(#linearGradient56);fill-opacity:1;fill-rule:nonzero;stroke:none"
             id="path58" /></g></g></g></g></svg>
