<?xml version="1.0" encoding="UTF-8" standalone="no"?>
<svg
   xmlns:dc="http://purl.org/dc/elements/1.1/"
   xmlns:cc="http://creativecommons.org/ns#"
   xmlns:rdf="http://www.w3.org/1999/02/22-rdf-syntax-ns#"
   xmlns:svg="http://www.w3.org/2000/svg"
   xmlns="http://www.w3.org/2000/svg"
   xmlns:sodipodi="http://sodipodi.sourceforge.net/DTD/sodipodi-0.dtd"
   xmlns:inkscape="http://www.inkscape.org/namespaces/inkscape"
   version="1.1"
   id="svg2"
   xml:space="preserve"
   width="26.173332"
   height="23.746668"
   viewBox="0 0 26.173332 23.746668"
   sodipodi:docname="calendar-release-date.eps"><metadata
     id="metadata8"><rdf:RDF><cc:Work
         rdf:about=""><dc:format>image/svg+xml</dc:format><dc:type
           rdf:resource="http://purl.org/dc/dcmitype/StillImage" /></cc:Work></rdf:RDF></metadata><defs
     id="defs6"><clipPath
       clipPathUnits="userSpaceOnUse"
       id="clipPath20"><path
         d="M 0,0 H 196 V 178 H 0 Z"
         id="path18" /></clipPath><clipPath
       clipPathUnits="userSpaceOnUse"
       id="clipPath26"><path
         d="m 63.3672,109.02 c -4.0391,0 -7.8633,0 -11.7422,0 0,-3.829 0,-7.547 0,-11.2661 3.9883,0 7.8555,0 11.7422,0 0,3.8051 0,7.4881 0,11.2661 z M 147.066,34.8008 c 0.012,-0.125 0.02,-0.2539 0.039,-0.3789 3.215,0 6.418,0 9.629,0 7.461,0 14.922,-0.0117 22.383,0 2.207,0 3.613,0.8281 3.664,2.5195 0.117,4.2774 0.039,8.5625 0.039,13.1328 -12.082,-5.164 -23.918,-10.2148 -35.754,-15.2734 z m 11.907,123.1602 c 0.007,0 0.007,0 0.007,0 0,-3.711 -0.019,-7.418 0.012,-11.129 0.02,-2.129 1.133,-3.184 3.34,-3.227 1.805,-0.035 3.613,-0.05 5.41,0.004 1.981,0.063 3.145,1.137 3.153,3.047 0.039,7.539 0.039,15.082 0,22.621 -0.008,1.907 -1.18,2.981 -3.153,3.039 -1.75,0.047 -3.488,0.028 -5.226,0.008 -2.442,-0.031 -3.524,-1.062 -3.536,-3.41 -0.027,-3.648 -0.007,-7.301 -0.007,-10.953 z m -95.5277,0.016 c 0,3.711 0.0274,7.414 -0.0117,11.125 -0.0234,2.121 -1.1523,3.175 -3.3516,3.218 -1.8047,0.035 -3.6093,0.043 -5.4101,-0.004 -1.9805,-0.058 -3.1367,-1.136 -3.1446,-3.046 -0.039,-7.54 -0.039,-15.079 0,-22.618 0.0079,-1.898 1.1797,-2.968 3.168,-3.031 1.7383,-0.055 3.4805,-0.039 5.2188,-0.016 2.4257,0.028 3.5117,1.071 3.5273,3.418 0.0234,3.653 0.0039,7.301 0.0039,10.954 z M 170.348,70.4453 C 155.457,58.5039 140.66,46.6289 125.477,34.4492 c 3.289,0.0117 5.937,-0.164 8.64,1.0274 12.578,5.5273 25.254,10.8593 37.891,16.2695 3.039,1.2969 6.066,2.6172 9.258,3.9922 -3.7,4.9805 -7.262,9.7851 -10.918,14.707 z m 12.375,-6.7461 c 0,19.2266 0,38.0198 0,57.0118 -41.817,0 -83.5082,0 -125.1371,0 0,1.965 0,3.738 0,5.707 41.7969,0 83.4841,0 125.2541,0 0,8.746 0.027,17.293 -0.02,25.848 -0.011,1.656 -1.093,2.636 -2.824,2.793 -0.965,0.089 -1.949,0.015 -3.113,0.015 0,-3.008 0.047,-5.863 -0.02,-8.719 -0.097,-4.714 -3.906,-8.367 -8.8,-8.492 -1.739,-0.043 -3.485,-0.015 -5.223,-0.011 -6.203,0.011 -9.844,3.527 -9.836,9.492 0,2.551 0,5.097 0,7.605 -28.008,0 -55.7696,0 -83.5977,0 0,-3.019 0.0703,-5.89 -0.0157,-8.758 -0.1367,-4.531 -3.8984,-8.148 -8.5937,-8.32 -1.8008,-0.066 -3.6055,-0.023 -5.4102,-0.019 -6.2109,0.011 -9.8359,3.503 -9.8515,9.48 -0.0039,2.547 0,5.102 0,7.625 -5.1524,0.461 -5.9727,-0.242 -5.9727,-4.922 0,-19.148 0,-38.305 0,-57.4569 0,-0.6875 0,-1.3711 0,-2.1093 2.7773,0.4687 5.3086,0.8945 8.2422,1.3945 -2.0664,0.9375 -2.3047,2.3828 -2.2891,4.0351 0.0547,5.0856 0.0157,10.1716 0.0235,15.2616 0.0039,2.715 1.0117,3.695 3.7929,3.699 5.4102,0.016 10.8203,0.016 16.2305,0.004 2.8125,-0.008 3.8438,-0.98 3.8477,-3.656 0.0156,-5.203 0.0195,-10.414 0.0117,-15.6211 -0.0039,-2.707 -1.0196,-3.6992 -3.7891,-3.7148 -3.0859,-0.0078 -6.1758,0 -9.2617,0 C 77.4688,88.1797 95.6406,73.3281 97.332,58.1016 95.5352,57.625 93.7148,57.1563 91.8984,56.6758 85.9063,76.8906 64.8477,89.4297 43.2695,85.3711 23.8164,81.7148 9.56641,64.8203 9.71875,45.5039 9.86719,26.0313 24.3477,9.75391 44.8555,6.23828 c 9.5156,-1.62109 18.6054,0.00781 26.9883,4.59762 11.9804,6.5743 18.8867,16.6211 21.1757,29.7266 2.0352,-0.293 3.9024,-0.5664 5.836,-0.8398 -0.3711,-1.8555 -0.6953,-3.4961 -1.0547,-5.3008 5.9762,0 11.8632,-0.0196 17.7542,0.039 0.535,0 1.121,0.4375 1.582,0.8008 11.574,9.2578 23.117,18.543 34.699,27.7813 0.848,0.6836 1.199,1.3476 1.187,2.414 -0.046,5.6836 -0.039,11.375 -0.019,17.0586 0.012,2.6094 1.027,3.6055 3.703,3.6133 6.023,0.0156 12.059,0.0039 18.094,0.0039 0.656,0 1.32,0 1.933,0 0,-2.0586 0,-3.8711 0,-5.8125 -5.964,0 -11.796,0 -17.636,0 0,-3.8008 0,-7.4609 0,-11.3203 0.41,0.293 0.664,0.4492 0.89,0.625 2.871,2.2969 5.711,4.6094 8.602,6.8867 1.945,1.5313 3.555,1.3281 5.058,-0.6367 1.262,-1.6289 2.473,-3.3008 3.704,-4.9492 1.718,-2.3047 3.425,-4.6094 5.371,-7.2266 z M 45.5234,160.895 c 0,2.882 -0.0195,5.57 0.0079,8.257 0.0429,5.223 3.8593,8.883 9.3085,8.926 1.8672,0.016 3.7305,0.024 5.5977,-0.012 5.1016,-0.089 8.8945,-3.757 8.9688,-8.699 0.0429,-2.75 0.0117,-5.5 0.0117,-8.39 27.8437,0 55.598,0 83.586,0 0,2.531 -0.008,5.078 0,7.632 0.012,5.977 3.633,9.454 9.855,9.465 1.563,0.004 3.114,0.008 4.668,0 5.567,-0.047 9.317,-3.668 9.364,-9.058 0.019,-2.633 0,-5.266 0,-8.18 0.832,0 1.601,0.004 2.382,0 5.821,-0.027 9.543,-3.602 9.543,-9.234 0.008,-27.532 0.008,-55.0629 0.008,-82.5903 0,-10.2929 0.012,-20.5976 0,-30.8906 -0.008,-5.9453 -3.672,-9.4414 -9.89,-9.4531 -27.11,0 -54.219,-0.0078 -81.3285,0.0312 -1.3867,0 -2.0235,-0.3633 -2.6094,-1.6015 C 86.293,8.50391 66.5859,-2.05469 45.1875,0.339844 25.3867,2.54688 8.64063,17.7227 4.61719,37.0859 0.300781,57.8984 11.7422,79.1484 32.0078,87.8203 c 1.207,0.5156 1.6133,1.0781 1.6094,2.3477 -0.0469,20.105 -0.0274,40.219 -0.0195,60.328 0,7.156 3.1562,10.238 10.625,10.34 0.3593,0.004 0.7265,0.035 1.3007,0.059 z"
         id="path24" /></clipPath><linearGradient
       x1="0"
       y1="0"
       x2="1"
       y2="0"
       gradientUnits="userSpaceOnUse"
       gradientTransform="matrix(0,178.091,178.091,0,96.2696,-3.8e-6)"
       spreadMethod="pad"
       id="linearGradient36"><stop
         style="stop-opacity:1;stop-color:#50ade5"
         offset="0"
         id="stop28" /><stop
         style="stop-opacity:1;stop-color:#50ade5"
         offset="0.117318"
         id="stop30" /><stop
         style="stop-opacity:1;stop-color:#87cf3f"
         offset="0.678771"
         id="stop32" /><stop
         style="stop-opacity:1;stop-color:#bfe25a"
         offset="1"
         id="stop34" /></linearGradient><clipPath
       clipPathUnits="userSpaceOnUse"
       id="clipPath46"><path
         d="m 66.6445,21.3164 c -0.0117,3.875 -3.3281,7.0781 -7.3437,7.0977 -4.1211,0.0195 -7.5,-3.2813 -7.4375,-7.2461 0.0625,-3.8672 3.4336,-7.0196 7.4609,-6.9922 4.0039,0.039 7.3321,3.2812 7.3203,7.1406 z M 22.2188,21.375 c -0.0196,3.8477 -3.3985,7.0508 -7.418,7.0391 -4.0156,-0.0196 -7.34767,-3.2227 -7.36721,-7.0899 -0.01953,-3.8672 3.30081,-7.1289 7.28911,-7.1484 4.1211,-0.0274 7.5156,3.2344 7.4961,7.1992 z m 44.3867,35.3984 c -12.4297,0 -24.625,0 -36.7852,0 0,-2.3906 0,-4.6484 0,-6.7968 12.3789,0 24.5781,0 36.7852,0 0,2.3242 0,4.4726 0,6.7968 z M 22.2227,34.0195 c 0,8.2618 -0.0039,16.5625 0,24.875 0,4.1094 1.082,5.1641 5.2851,5.1641 13.8047,0.0117 27.6055,0.0117 41.4102,0 3.9765,0 5.1523,-1.0938 5.1523,-4.832 0,-12.7657 0.0664,-25.5391 -0.039,-38.3008 C 73.9688,13.875 68.4102,8.11328 61.0859,7.125 c -6.832,-0.90625 -13.6796,3.2227 -15.8398,9.6992 -1.8711,5.6055 -0.5859,10.6328 3.7891,14.6875 4.375,4.0625 9.625,5.0391 15.4023,3.0742 0.6367,-0.2226 1.25,-0.5156 2.0742,-0.8593 0,3.0078 0,5.832 0,8.8086 -12.2187,0 -24.4258,0 -36.8594,0 0,-6.5821 0.0235,-13.086 -0.0156,-19.5977 -0.0117,-1.543 -0.0703,-3.125 -0.3945,-4.6289 C 27.6328,10.9648 20.2188,5.99219 12.7461,7.15625 4.81641,8.38672 -0.730469,15.2031 0.0820313,22.7227 0.882813,30.2109 7.67188,35.9258 15.4922,35.4766 c 2.1758,-0.1289 4.3047,-0.9102 6.7305,-1.4571 z"
         id="path44" /></clipPath><linearGradient
       x1="0"
       y1="0"
       x2="1"
       y2="0"
       gradientUnits="userSpaceOnUse"
       gradientTransform="matrix(0,57.0785,57.0785,0,37.0459,6.987)"
       spreadMethod="pad"
       id="linearGradient56"><stop
         style="stop-opacity:1;stop-color:#35b655"
         offset="0"
         id="stop48" /><stop
         style="stop-opacity:1;stop-color:#35b655"
         offset="0.0558659"
         id="stop50" /><stop
         style="stop-opacity:1;stop-color:#87cf3f"
         offset="0.561453"
         id="stop52" /><stop
         style="stop-opacity:1;stop-color:#bfe25a"
         offset="1"
         id="stop54" /></linearGradient><clipPath
       clipPathUnits="userSpaceOnUse"
       id="clipPath66"><path
         d="m 85.2813,99.8438 c 4.9882,0 9.7929,0 14.5195,0 0,4.7852 0,9.4062 0,13.9802 -4.9297,0 -9.6758,0 -14.5195,0 0,-4.687 0,-9.254 0,-13.9802 z m 7.1484,-7.2852 c -3.3984,0 -6.793,-0.0195 -10.1875,0.0117 -3.0664,0.0195 -4.4414,1.2774 -4.457,4.1563 -0.0352,6.7504 -0.0352,13.5074 0,20.2654 0.0156,2.754 1.4062,4.055 4.3125,4.071 7.0156,0.027 14.0429,0.027 21.0543,-0.008 2.86,-0.012 4.219,-1.352 4.227,-4.149 0.043,-6.754 0.051,-13.511 0.012,-20.2693 -0.012,-2.7304 -1.438,-4.0469 -4.317,-4.0781 -3.5545,-0.0391 -7.1013,-0.0078 -10.6443,-0.0078 0,0.0039 0,0.0078 0,0.0078 z"
         id="path64" /></clipPath><linearGradient
       x1="0"
       y1="0"
       x2="1"
       y2="0"
       gradientUnits="userSpaceOnUse"
       gradientTransform="matrix(0,28.5422,28.5422,0,92.5877,92.5407)"
       spreadMethod="pad"
       id="linearGradient76"><stop
         style="stop-opacity:1;stop-color:#50ade5"
         offset="0"
         id="stop68" /><stop
         style="stop-opacity:1;stop-color:#50ade5"
         offset="0.117318"
         id="stop70" /><stop
         style="stop-opacity:1;stop-color:#87cf3f"
         offset="0.678771"
         id="stop72" /><stop
         style="stop-opacity:1;stop-color:#bfe25a"
         offset="1"
         id="stop74" /></linearGradient><clipPath
       clipPathUnits="userSpaceOnUse"
       id="clipPath86"><path
         d="m 144.254,99.7852 c 0,4.8008 0,9.4258 0,13.9808 -4.969,0 -9.766,0 -14.52,0 0,-4.746 0,-9.317 0,-13.9808 4.871,0 9.618,0 14.52,0 z m 7.57,7.1368 c 0,-3.414 0.039,-6.832 -0.011,-10.2462 -0.04,-2.7735 -1.395,-4.0899 -4.278,-4.1016 -7.019,-0.0351 -14.043,-0.0351 -21.062,0 -2.871,0.0117 -4.239,1.3399 -4.258,4.1172 -0.031,6.7576 -0.039,13.5156 -0.012,20.2696 0.02,2.762 1.406,4.094 4.289,4.105 7.02,0.036 14.043,0.028 21.055,-0.003 2.879,-0.016 4.238,-1.344 4.266,-4.122 0.039,-3.339 0.011,-6.679 0.011,-10.019 z"
         id="path84" /></clipPath><linearGradient
       x1="0"
       y1="0"
       x2="1"
       y2="0"
       gradientUnits="userSpaceOnUse"
       gradientTransform="matrix(0,28.5409,28.5409,0,137.011,92.5484)"
       spreadMethod="pad"
       id="linearGradient96"><stop
         style="stop-opacity:1;stop-color:#50ade5"
         offset="0"
         id="stop88" /><stop
         style="stop-opacity:1;stop-color:#50ade5"
         offset="0.117318"
         id="stop90" /><stop
         style="stop-opacity:1;stop-color:#87cf3f"
         offset="0.678771"
         id="stop92" /><stop
         style="stop-opacity:1;stop-color:#bfe25a"
         offset="1"
         id="stop94" /></linearGradient><clipPath
       clipPathUnits="userSpaceOnUse"
       id="clipPath106"><path
         d="M 0,0 H 196 V 178 H 0 Z"
         id="path104" /></clipPath><clipPath
       clipPathUnits="userSpaceOnUse"
       id="clipPath112"><path
         d="m 188.746,113.785 c -4.988,0 -9.793,0 -14.519,0 0,-4.781 0,-9.402 0,-13.9686 4.921,0 9.668,0 14.519,0 0,4.6876 0,9.2536 0,13.9686 z m -22.117,-6.746 c 0,3.332 -0.039,6.668 0.008,10.004 0.031,2.641 1.398,4.008 4.113,4.023 7.156,0.039 14.316,0.036 21.473,-0.015 2.578,-0.02 3.996,-1.387 4.015,-3.887 0.047,-6.891 0.047,-13.785 0,-20.6718 -0.019,-2.5078 -1.425,-3.8945 -3.996,-3.9141 -7.234,-0.0429 -14.472,-0.0468 -21.707,0.0078 -2.441,0.0196 -3.84,1.4102 -3.879,3.7813 -0.066,3.5547 -0.019,7.1168 -0.019,10.6718 z"
         id="path110" /></clipPath><linearGradient
       x1="0"
       y1="0"
       x2="1"
       y2="0"
       gradientUnits="userSpaceOnUse"
       gradientTransform="matrix(0,28.5457,28.5457,0,181.443,92.5461)"
       spreadMethod="pad"
       id="linearGradient122"><stop
         style="stop-opacity:1;stop-color:#50ade5"
         offset="0"
         id="stop114" /><stop
         style="stop-opacity:1;stop-color:#50ade5"
         offset="0.117318"
         id="stop116" /><stop
         style="stop-opacity:1;stop-color:#87cf3f"
         offset="0.678771"
         id="stop118" /><stop
         style="stop-opacity:1;stop-color:#bfe25a"
         offset="1"
         id="stop120" /></linearGradient><clipPath
       clipPathUnits="userSpaceOnUse"
       id="clipPath132"><path
         d="m 144.313,78.1719 c -5.016,0 -9.754,0 -14.551,0 0,-4.7461 0,-9.3672 0,-13.9571 4.953,0 9.758,0 14.551,0 0,4.7383 0,9.2969 0,13.9571 z m -22.11,-7.0039 c 0,3.4101 -0.027,6.8164 0.012,10.2265 0.039,2.6446 1.406,4.0078 4.109,4.0274 7.16,0.039 14.317,0.039 21.485,-0.0039 2.57,-0.0196 3.988,-1.3985 3.996,-3.8985 0.047,-6.8945 0.058,-13.789 0.019,-20.6718 -0.019,-2.5118 -1.437,-3.8985 -3.996,-3.918 -7.234,-0.0391 -14.48,-0.0391 -21.719,0.0195 -2.437,0.0196 -3.836,1.4063 -3.886,3.7813 -0.059,3.4765 -0.008,6.9609 -0.02,10.4375 z"
         id="path130" /></clipPath><linearGradient
       x1="0"
       y1="0"
       x2="1"
       y2="0"
       gradientUnits="userSpaceOnUse"
       gradientTransform="matrix(0,28.5456,28.5456,0,137.02,56.904)"
       spreadMethod="pad"
       id="linearGradient142"><stop
         style="stop-opacity:1;stop-color:#50ade5"
         offset="0"
         id="stop134" /><stop
         style="stop-opacity:1;stop-color:#50ade5"
         offset="0.117318"
         id="stop136" /><stop
         style="stop-opacity:1;stop-color:#87cf3f"
         offset="0.678771"
         id="stop138" /><stop
         style="stop-opacity:1;stop-color:#bfe25a"
         offset="1"
         id="stop140" /></linearGradient><clipPath
       clipPathUnits="userSpaceOnUse"
       id="clipPath152"><path
         d="m 107.379,57.0078 c -2.566,0 -4.852,0 -7.371,0 0,7.0899 0,14.082 0,21.2305 -6.2228,0 -12.2033,0 -18.3557,0 0,2.3945 0,4.6484 0,7.207 2.4766,0 4.9844,0 7.4961,-0.0039 4.6954,0 9.3946,0.0234 14.0896,-0.0195 2.539,-0.0235 4.102,-1.2891 4.121,-3.5586 0.071,-8.2149 0.02,-16.4375 0.02,-24.8555 z"
         id="path150" /></clipPath><linearGradient
       x1="0"
       y1="0"
       x2="1"
       y2="0"
       gradientUnits="userSpaceOnUse"
       gradientTransform="matrix(0,28.4396,28.4396,0,94.5245,57.008)"
       spreadMethod="pad"
       id="linearGradient162"><stop
         style="stop-opacity:1;stop-color:#50ade5"
         offset="0"
         id="stop154" /><stop
         style="stop-opacity:1;stop-color:#50ade5"
         offset="0.117318"
         id="stop156" /><stop
         style="stop-opacity:1;stop-color:#87cf3f"
         offset="0.678771"
         id="stop158" /><stop
         style="stop-opacity:1;stop-color:#bfe25a"
         offset="1"
         id="stop160" /></linearGradient><clipPath
       clipPathUnits="userSpaceOnUse"
       id="clipPath172"><path
         d="m 100.094,35.6211 c -2.6643,0 -4.9417,0 -7.3713,0 -0.1875,2.1406 -0.3633,4.2305 -0.5625,6.543 2.3945,0.3242 4.7109,0.6367 7.3007,0.9882 0.2149,-2.5117 0.418,-4.8945 0.6331,-7.5312 z"
         id="path170" /></clipPath><linearGradient
       x1="0"
       y1="0"
       x2="1"
       y2="0"
       gradientUnits="userSpaceOnUse"
       gradientTransform="matrix(0,7.52828,7.52828,0,96.1291,35.624)"
       spreadMethod="pad"
       id="linearGradient182"><stop
         style="stop-opacity:1;stop-color:#35b655"
         offset="0"
         id="stop174" /><stop
         style="stop-opacity:1;stop-color:#35b655"
         offset="0.0558659"
         id="stop176" /><stop
         style="stop-opacity:1;stop-color:#87cf3f"
         offset="0.561453"
         id="stop178" /><stop
         style="stop-opacity:1;stop-color:#bfe25a"
         offset="1"
         id="stop180" /></linearGradient></defs><sodipodi:namedview
     pagecolor="#ffffff"
     bordercolor="#666666"
     borderopacity="1"
     objecttolerance="10"
     gridtolerance="10"
     guidetolerance="10"
     inkscape:pageopacity="0"
     inkscape:pageshadow="2"
     inkscape:window-width="640"
     inkscape:window-height="480"
     id="namedview4" /><g
     id="g10"
     inkscape:groupmode="layer"
     inkscape:label="ink_ext_XXXXXX"
     transform="matrix(1.3333333,0,0,-1.3333333,0,23.746667)"><g
       id="g12"
       transform="scale(0.1)"><g
         id="g14"><g
           id="g16"
           clip-path="url(#clipPath20)"><g
             id="g22"
             clip-path="url(#clipPath26)"><path
               d="m 41,0 v 1 h -4 v 1 h -3 v 1 h -3 v 1 h -2 v 1 h -2 v 1 h -1 v 1 h -2 v 1 h -1 v 1 h -2 v 1 h -1 v 1 h -1 v 1 h -1 v 1 h -1 v 1 h -1 v 1 h -1 v 1 h -1 v 1 h -1 v 1 h -1 v 2 h -1 v 1 h -1 v 2 H 9 v 2 H 8 v 2 H 7 v 2 H 6 v 3 H 5 v 3 H 4 v 6 H 3 v 9 h 1 v 6 h 1 v 4 h 1 v 3 h 1 v 2 h 1 v 2 h 1 v 2 h 1 v 1 h 1 v 2 h 1 v 1 h 1 v 2 h 1 v 1 h 1 v 1 h 1 v 1 h 1 v 1 h 1 v 1 h 1 v 1 h 1 v 1 h 2 v 1 h 1 v 1 h 1 v 1 h 2 v 1 h 2 v 1 h 2 v 1 h 2 v 1 h 1 v 65 h 1 v 3 h 1 v 2 h 2 v 1 h 2 v 1 h 6 v 11 h 1 v 2 h 1 v 2 h 1 v 1 h 2 v 1 h 15 v -1 h 2 v -1 h 1 v -2 h 1 v -2 h 1 v -11 h 83 v 13 h 1 v 1 h 1 v 1 h 1 v 1 h 1 v 1 h 15 v -1 h 2 v -1 h 1 v -1 h 1 v -2 h 1 v -12 h 7 v -1 h 2 v -1 h 1 v -1 h 1 v -2 h 1 V 33 h -1 v -1 h -1 v -1 h -1 v -1 h -1 v -1 h -3 V 28 H 96 V 27 H 95 V 25 H 94 V 23 H 93 V 21 H 92 V 20 H 91 V 18 H 90 V 17 H 89 V 16 H 88 V 15 H 87 V 14 H 86 V 13 H 85 V 12 H 84 V 11 H 83 V 10 H 82 V 9 H 80 V 8 H 79 V 7 H 77 V 6 H 76 V 5 H 73 V 4 H 71 V 3 H 69 V 2 H 65 V 1 H 62 V 0 Z m 6,7 V 6 h 5 v 1 h 9 v 1 h 3 v 1 h 3 v 1 h 3 v 1 h 2 v 1 h 1 v 1 h 2 v 1 h 1 v 1 h 1 v 1 h 2 v 1 h 1 v 1 h 1 v 1 h 1 v 1 h 1 v 1 h 1 v 2 h 1 v 1 h 1 v 1 h 1 v 2 h 1 v 2 h 1 v 2 h 1 v 3 h 1 v 3 h 1 v 4 h 5 v -1 h 2 v -5 h 17 v 1 h 2 v 1 h 1 v 1 h 1 v 1 h 1 v 1 h 2 v 1 h 1 v 1 h 1 v 1 h 1 v 1 h 2 v 1 h 1 v 1 h 1 v 1 h 1 v 1 h 2 v 1 h 1 v 1 h 1 v 1 h 1 v 1 h 2 v 1 h 1 v 1 h 1 v 1 h 1 v 1 h 2 v 1 h 1 v 1 h 1 v 1 h 1 v 1 h 2 v 1 h 1 v 1 h 1 v 1 h 1 v 1 h 1 v 2 h 1 v 13 h -1 v 3 h 1 v 4 h 2 v 1 h 22 v -7 h -17 v -9 h 1 v 1 h 1 v 1 h 2 v 1 h 1 v 1 h 1 v 1 h 1 v 1 h 2 v 1 h 4 v -1 h 1 v -1 h 1 v -1 h 1 v -2 h 1 v -1 h 1 v -1 h 1 v -2 h 1 v -1 h 1 v -1 h 1 v 53 H 57 v 7 h 125 v 27 h -2 v 1 h -3 v -13 h -1 v -1 h -1 v -1 h -1 v -1 h -1 v -1 h -3 v -1 h -9 v 1 h -4 v 1 h -1 v 1 h -1 v 1 h -1 v 1 h -1 v 12 H 70 v -10 h -1 v -2 h -1 v -2 h -1 v -1 h -2 v -1 h -3 v -1 h -9 v 1 h -3 v 1 h -2 v 1 h -1 v 2 h -1 v 2 h -1 v 11 h -2 v -1 h -2 v -1 H 40 V 91 h 2 v 1 h 4 v 1 h -1 v 21 h 1 v 1 h 23 v -1 h 1 V 93 h -1 v -1 h -2 v -1 h -2 v -1 h 2 v -1 h 3 v -1 h 2 v -1 h 2 v -1 h 2 v -1 h 2 v -1 h 1 v -1 h 2 v -1 h 1 v -1 h 2 v -1 h 1 v -1 h 1 v -1 h 1 v -1 h 1 v -1 h 1 v -1 h 1 v -1 h 1 v -1 h 1 v -2 h 1 v -1 h 1 v -2 h 1 v -2 h 1 v -2 h 1 v -3 h 1 v -3 h -1 v -1 h -3 v -1 h -3 v 3 h -1 v 2 h -1 v 2 h -1 v 2 h -1 v 1 h -1 v 2 h -1 v 1 h -1 v 2 h -1 v 1 h -1 v 1 h -1 v 1 h -1 v 1 h -1 v 1 h -2 v 1 h -1 v 1 h -2 v 1 h -1 v 1 h -2 v 1 h -2 v 1 h -2 v 1 h -3 v 1 h -4 v 1 h -8 v 1 h -2 v -1 h -8 v -1 h -3 v -1 h -3 v -1 h -2 v -1 h -2 v -1 h -2 v -1 h -2 v -1 h -1 v -1 h -1 v -1 h -2 v -1 h -1 v -1 h -1 v -1 h -1 v -1 h -1 v -1 h -1 v -2 h -1 v -1 h -1 v -2 h -1 v -1 h -1 v -2 h -1 v -2 h -1 v -3 h -1 v -3 h -1 v -6 h -1 v -7 h 1 v -5 h 1 v -4 h 1 v -2 h 1 v -2 h 1 v -2 h 1 v -2 h 1 v -1 h 1 v -1 h 1 v -2 h 1 v -1 h 1 v -1 h 1 v -1 h 1 v -1 h 1 v -1 h 1 v -1 h 2 v -1 h 1 v -1 h 2 v -1 h 1 v -1 h 3 v -1 h 2 V 9 h 2 V 8 h 4 V 7 Z m 81,29 v -1 h 4 v 1 h 3 v 1 h 2 v 1 h 2 v 1 h 3 v 1 h 2 v 1 h 2 v 1 h 3 v 1 h 2 v 1 h 2 v 1 h 3 v 1 h 2 v 1 h 2 v 1 h 3 v 1 h 2 v 1 h 2 v 1 h 3 v 1 h 2 v 1 h 2 v 1 h 3 v 1 h 2 v 1 h 1 v 1 h -1 v 1 h -1 v 2 h -1 v 1 h -1 v 1 h -1 v 2 h -1 v 1 h -1 v 1 h -1 v 2 h -1 v 1 h -2 v -1 h -1 v -1 h -1 v -1 h -2 v -1 h -1 v -1 h -1 v -1 h -1 v -1 h -2 v -1 h -1 v -1 h -1 v -1 h -1 v -1 h -2 v -1 h -1 v -1 h -1 v -1 h -1 v -1 h -2 v -1 h -1 v -1 h -1 v -1 h -1 v -1 h -2 v -1 h -1 v -1 h -1 v -1 h -1 v -1 h -2 v -1 h -1 v -1 h -1 v -1 h -1 v -1 h -2 v -1 h -1 v -1 h -1 v -1 h -1 v -1 h -2 v -1 h -1 v -1 z m 22,0 v -1 h 31 v 1 h 1 v 13 h -1 v -1 h -3 v -1 h -2 v -1 h -2 v -1 h -3 v -1 h -2 v -1 h -2 v -1 h -3 v -1 h -2 v -1 h -2 v -1 h -3 v -1 h -2 v -1 h -2 V 36 Z M 52,99 v -1 h 11 v 11 H 52 Z m 2,46 v -1 h 7 v 1 h 1 v 1 h 1 v 24 h -1 v 1 h -1 v 1 h -7 v -1 h -1 v -1 h -1 v -24 h 1 v -1 z m 107,0 v -1 h 8 v 1 h 1 v 26 h -2 v 1 h -7 v -1 h -1 v -2 h -1 v -22 h 1 v -2"
               style="fill:url(#linearGradient36);fill-opacity:1;fill-rule:nonzero;stroke:none"
               id="path38" /></g></g></g><g
         id="g40"><g
           id="g42"
           clip-path="url(#clipPath46)"><path
             d="m 66.6445,21.3164 c -0.0117,3.875 -3.3281,7.0781 -7.3437,7.0977 -4.1211,0.0195 -7.5,-3.2813 -7.4375,-7.2461 0.0625,-3.8672 3.4336,-7.0196 7.4609,-6.9922 4.0039,0.039 7.3321,3.2812 7.3203,7.1406 z M 22.2188,21.375 c -0.0196,3.8477 -3.3985,7.0508 -7.418,7.0391 -4.0156,-0.0196 -7.34767,-3.2227 -7.36721,-7.0899 -0.01953,-3.8672 3.30081,-7.1289 7.28911,-7.1484 4.1211,-0.0274 7.5156,3.2344 7.4961,7.1992 z m 44.3867,35.3984 c -12.4297,0 -24.625,0 -36.7852,0 0,-2.3906 0,-4.6484 0,-6.7968 12.3789,0 24.5781,0 36.7852,0 0,2.3242 0,4.4726 0,6.7968 z M 22.2227,34.0195 c 0,8.2618 -0.0039,16.5625 0,24.875 0,4.1094 1.082,5.1641 5.2851,5.1641 13.8047,0.0117 27.6055,0.0117 41.4102,0 3.9765,0 5.1523,-1.0938 5.1523,-4.832 0,-12.7657 0.0664,-25.5391 -0.039,-38.3008 C 73.9688,13.875 68.4102,8.11328 61.0859,7.125 c -6.832,-0.90625 -13.6796,3.2227 -15.8398,9.6992 -1.8711,5.6055 -0.5859,10.6328 3.7891,14.6875 4.375,4.0625 9.625,5.0391 15.4023,3.0742 0.6367,-0.2226 1.25,-0.5156 2.0742,-0.8593 0,3.0078 0,5.832 0,8.8086 -12.2187,0 -24.4258,0 -36.8594,0 0,-6.5821 0.0235,-13.086 -0.0156,-19.5977 -0.0117,-1.543 -0.0703,-3.125 -0.3945,-4.6289 C 27.6328,10.9648 20.2188,5.99219 12.7461,7.15625 4.81641,8.38672 -0.730469,15.2031 0.0820313,22.7227 0.882813,30.2109 7.67188,35.9258 15.4922,35.4766 c 2.1758,-0.1289 4.3047,-0.9102 6.7305,-1.4571"
             style="fill:url(#linearGradient56);fill-opacity:1;fill-rule:nonzero;stroke:none"
             id="path58" /></g></g><g
         id="g60"><g
           id="g62"
           clip-path="url(#clipPath66)"><path
             d="m 85.2813,99.8438 c 4.9882,0 9.7929,0 14.5195,0 0,4.7852 0,9.4062 0,13.9802 -4.9297,0 -9.6758,0 -14.5195,0 0,-4.687 0,-9.254 0,-13.9802 z m 7.1484,-7.2852 c -3.3984,0 -6.793,-0.0195 -10.1875,0.0117 -3.0664,0.0195 -4.4414,1.2774 -4.457,4.1563 -0.0352,6.7504 -0.0352,13.5074 0,20.2654 0.0156,2.754 1.4062,4.055 4.3125,4.071 7.0156,0.027 14.0429,0.027 21.0543,-0.008 2.86,-0.012 4.219,-1.352 4.227,-4.149 0.043,-6.754 0.051,-13.511 0.012,-20.2693 -0.012,-2.7304 -1.438,-4.0469 -4.317,-4.0781 -3.5545,-0.0391 -7.1013,-0.0078 -10.6443,-0.0078 0,0.0039 0,0.0078 0,0.0078"
             style="fill:url(#linearGradient76);fill-opacity:1;fill-rule:nonzero;stroke:none"
             id="path78" /></g></g><g
         id="g80"><g
           id="g82"
           clip-path="url(#clipPath86)"><path
             d="m 144.254,99.7852 c 0,4.8008 0,9.4258 0,13.9808 -4.969,0 -9.766,0 -14.52,0 0,-4.746 0,-9.317 0,-13.9808 4.871,0 9.618,0 14.52,0 z m 7.57,7.1368 c 0,-3.414 0.039,-6.832 -0.011,-10.2462 -0.04,-2.7735 -1.395,-4.0899 -4.278,-4.1016 -7.019,-0.0351 -14.043,-0.0351 -21.062,0 -2.871,0.0117 -4.239,1.3399 -4.258,4.1172 -0.031,6.7576 -0.039,13.5156 -0.012,20.2696 0.02,2.762 1.406,4.094 4.289,4.105 7.02,0.036 14.043,0.028 21.055,-0.003 2.879,-0.016 4.238,-1.344 4.266,-4.122 0.039,-3.339 0.011,-6.679 0.011,-10.019"
             style="fill:url(#linearGradient96);fill-opacity:1;fill-rule:nonzero;stroke:none"
             id="path98" /></g></g><g
         id="g100"><g
           id="g102"
           clip-path="url(#clipPath106)"><g
             id="g108"
             clip-path="url(#clipPath112)"><path
               d="m 168,92 v 1 h -1 v 1 h -1 v 25 h 1 v 2 h 2 v 1 h 24 v -1 h 3 V 93 h -1 v -1 z m 7,9 v -1 h 13 v 13 h -13 v -12"
               style="fill:url(#linearGradient122);fill-opacity:1;fill-rule:nonzero;stroke:none"
               id="path124" /></g></g></g><g
         id="g126"><g
           id="g128"
           clip-path="url(#clipPath132)"><path
             d="m 144.313,78.1719 c -5.016,0 -9.754,0 -14.551,0 0,-4.7461 0,-9.3672 0,-13.9571 4.953,0 9.758,0 14.551,0 0,4.7383 0,9.2969 0,13.9571 z m -22.11,-7.0039 c 0,3.4101 -0.027,6.8164 0.012,10.2265 0.039,2.6446 1.406,4.0078 4.109,4.0274 7.16,0.039 14.317,0.039 21.485,-0.0039 2.57,-0.0196 3.988,-1.3985 3.996,-3.8985 0.047,-6.8945 0.058,-13.789 0.019,-20.6718 -0.019,-2.5118 -1.437,-3.8985 -3.996,-3.918 -7.234,-0.0391 -14.48,-0.0391 -21.719,0.0195 -2.437,0.0196 -3.836,1.4063 -3.886,3.7813 -0.059,3.4765 -0.008,6.9609 -0.02,10.4375"
             style="fill:url(#linearGradient142);fill-opacity:1;fill-rule:nonzero;stroke:none"
             id="path144" /></g></g><g
         id="g146"><g
           id="g148"
           clip-path="url(#clipPath152)"><path
             d="m 107.379,57.0078 c -2.566,0 -4.852,0 -7.371,0 0,7.0899 0,14.082 0,21.2305 -6.2228,0 -12.2033,0 -18.3557,0 0,2.3945 0,4.6484 0,7.207 2.4766,0 4.9844,0 7.4961,-0.0039 4.6954,0 9.3946,0.0234 14.0896,-0.0195 2.539,-0.0235 4.102,-1.2891 4.121,-3.5586 0.071,-8.2149 0.02,-16.4375 0.02,-24.8555"
             style="fill:url(#linearGradient162);fill-opacity:1;fill-rule:nonzero;stroke:none"
             id="path164" /></g></g><g
         id="g166"><g
           id="g168"
           clip-path="url(#clipPath172)"><path
             d="m 100.094,35.6211 c -2.6643,0 -4.9417,0 -7.3713,0 -0.1875,2.1406 -0.3633,4.2305 -0.5625,6.543 2.3945,0.3242 4.7109,0.6367 7.3007,0.9882 0.2149,-2.5117 0.418,-4.8945 0.6331,-7.5312"
             style="fill:url(#linearGradient182);fill-opacity:1;fill-rule:nonzero;stroke:none"
             id="path184" /></g></g></g></g></svg>
