<?xml version="1.0" encoding="UTF-8"?>
<svg xmlns="http://www.w3.org/2000/svg" xmlns:xlink="http://www.w3.org/1999/xlink" width="14.52pt" height="12.83pt" viewBox="0 0 14.52 12.83" version="1.1">
<defs>
<clipPath id="clip1">
  <path d="M 0 0 L 11 0 L 11 12.828125 L 0 12.828125 Z M 0 0 "/>
</clipPath>
<clipPath id="clip2">
  <path d="M 11 0 L 14.519531 0 L 14.519531 8 L 11 8 Z M 11 0 "/>
</clipPath>
</defs>
<g id="surface1">
<g clip-path="url(#clip1)" clip-rule="nonzero">
<path style=" stroke:none;fill-rule:nonzero;fill:rgb(53.69873%,53.69873%,54.098511%);fill-opacity:1;" d="M 6 11.253906 L 9.949219 7.136719 C 10.003906 7.082031 10.015625 7.046875 10.015625 6.96875 L 10.015625 1.207031 C 10.015625 1.144531 9.992188 1.085938 9.945313 1.039063 C 9.898438 0.992188 9.839844 0.96875 9.773438 0.96875 L 3.601563 0.96875 C 3.492188 0.96875 3.417969 1.015625 3.378906 1.117188 C 3.234375 1.46875 2.886719 2.222656 2.484375 3.09375 C 1.914063 4.324219 1.207031 5.851563 0.984375 6.476563 C 0.953125 6.5625 0.960938 6.621094 1.011719 6.695313 C 1.066406 6.769531 1.117188 6.796875 1.210938 6.796875 L 5.644531 6.796875 C 6.074219 6.796875 6.476563 7.03125 6.691406 7.402344 C 6.90625 7.773438 6.90625 8.238281 6.6875 8.609375 L 6.1875 9.472656 C 5.859375 10.039063 5.800781 10.671875 6 11.253906 Z M 3.601563 0 L 9.773438 0 C 10.09375 0 10.398438 0.128906 10.625 0.355469 C 10.855469 0.585938 10.980469 0.886719 10.980469 1.207031 L 10.980469 6.96875 C 10.980469 7.296875 10.871094 7.570313 10.644531 7.804688 L 5.824219 12.828125 L 5.488281 12.347656 C 4.789063 11.34375 4.734375 10.054688 5.355469 8.988281 L 5.855469 8.125 C 5.898438 8.050781 5.898438 7.957031 5.855469 7.882813 C 5.8125 7.808594 5.730469 7.761719 5.644531 7.761719 L 0.726563 7.761719 L 0.726563 7.667969 C 0.527344 7.582031 0.355469 7.441406 0.222656 7.25 C -0.0078125 6.921875 -0.0625 6.527344 0.0742188 6.148438 C 0.3125 5.484375 1 4 1.605469 2.691406 C 1.988281 1.863281 2.351563 1.085938 2.480469 0.757813 C 2.671875 0.289063 3.097656 0 3.601563 0 "/>
</g>
<g clip-path="url(#clip2)" clip-rule="nonzero">
<path style=" stroke:none;fill-rule:nonzero;fill:rgb(53.69873%,53.69873%,54.098511%);fill-opacity:1;" d="M 11.953125 7.359375 L 11.953125 0.242188 L 14.523438 0.242188 L 14.523438 7.359375 L 11.953125 7.359375 "/>
</g>
</g>
</svg>
