<?xml version="1.0" encoding="UTF-8" standalone="no"?>
<svg
   xmlns:dc="http://purl.org/dc/elements/1.1/"
   xmlns:cc="http://creativecommons.org/ns#"
   xmlns:rdf="http://www.w3.org/1999/02/22-rdf-syntax-ns#"
   xmlns:svg="http://www.w3.org/2000/svg"
   xmlns="http://www.w3.org/2000/svg"
   xmlns:sodipodi="http://sodipodi.sourceforge.net/DTD/sodipodi-0.dtd"
   xmlns:inkscape="http://www.inkscape.org/namespaces/inkscape"
   version="1.1"
   id="svg2"
   xml:space="preserve"
   width="15.28"
   height="13.226667"
   viewBox="0 0 15.28 13.226667"
   sodipodi:docname="down arrow.eps"><metadata
     id="metadata8"><rdf:RDF><cc:Work
         rdf:about=""><dc:format>image/svg+xml</dc:format><dc:type
           rdf:resource="http://purl.org/dc/dcmitype/StillImage" /></cc:Work></rdf:RDF></metadata><defs
     id="defs6"><clipPath
       clipPathUnits="userSpaceOnUse"
       id="clipPath20"><path
         d="M 0,0 H 115 V 99 H 0 Z"
         id="path18" /></clipPath><clipPath
       clipPathUnits="userSpaceOnUse"
       id="clipPath26"><path
         d="M 57.2773,99.2148 H 114.563 L 85.9219,49.6055 57.2773,-0.00390625 28.6406,49.6055 0,99.2148 Z"
         id="path24" /></clipPath><linearGradient
       x1="0"
       y1="0"
       x2="1"
       y2="0"
       gradientUnits="userSpaceOnUse"
       gradientTransform="matrix(114.561,0,0,-114.561,0,49.6066)"
       spreadMethod="pad"
       id="linearGradient36"><stop
         style="stop-opacity:1;stop-color:#50ade5"
         offset="0"
         id="stop28" /><stop
         style="stop-opacity:1;stop-color:#50ade5"
         offset="0.117318"
         id="stop30" /><stop
         style="stop-opacity:1;stop-color:#87cf3f"
         offset="0.678771"
         id="stop32" /><stop
         style="stop-opacity:1;stop-color:#bfe25a"
         offset="1"
         id="stop34" /></linearGradient></defs><sodipodi:namedview
     pagecolor="#ffffff"
     bordercolor="#666666"
     borderopacity="1"
     objecttolerance="10"
     gridtolerance="10"
     guidetolerance="10"
     inkscape:pageopacity="0"
     inkscape:pageshadow="2"
     inkscape:window-width="640"
     inkscape:window-height="480"
     id="namedview4" /><g
     id="g10"
     inkscape:groupmode="layer"
     inkscape:label="ink_ext_XXXXXX"
     transform="matrix(1.3333333,0,0,-1.3333333,0,13.226667)"><g
       id="g12"
       transform="scale(0.1)"><g
         id="g14"><g
           id="g16"
           clip-path="url(#clipPath20)"><g
             id="g22"
             clip-path="url(#clipPath26)"><path
               d="m 56,0 v 2 h -1 v 1 h -1 v 2 h -1 v 2 h -1 v 2 h -1 v 1 h -1 v 2 h -1 v 2 h -1 v 2 h -1 v 1 h -1 v 2 h -1 v 2 h -1 v 2 h -1 v 1 h -1 v 2 h -1 v 2 h -1 v 1 h -1 v 2 h -1 v 2 h -1 v 2 h -1 v 1 h -1 v 2 h -1 v 2 h -1 v 2 h -1 v 1 h -1 v 2 h -1 v 2 h -1 v 1 h -1 v 2 h -1 v 2 h -1 v 2 h -1 v 1 h -1 v 2 h -1 v 2 h -1 v 2 h -1 v 1 h -1 v 2 h -1 v 2 h -1 v 2 h -1 v 1 h -1 v 2 h -1 v 2 h -1 v 1 h -1 v 2 h -1 v 2 h -1 v 2 h -1 v 1 H 9 v 2 H 8 v 2 H 7 v 2 H 6 v 1 H 5 v 2 H 4 v 2 H 3 v 2 H 2 v 1 H 1 v 2 H 0 v 2 h 115 v -1 h -1 v -2 h -1 v -2 h -1 v -1 h -1 v -2 h -1 v -2 h -1 v -2 h -1 v -1 h -1 v -2 h -1 v -2 h -1 v -2 h -1 v -1 h -1 v -2 h -1 v -2 h -1 v -2 h -1 V 72 H 99 V 70 H 98 V 68 H 97 V 67 H 96 V 65 H 95 V 63 H 94 V 61 H 93 V 60 H 92 V 58 H 91 V 56 H 90 V 54 H 89 V 53 H 88 V 51 H 87 V 49 H 86 V 48 H 85 V 46 H 84 V 44 H 83 V 42 H 82 V 41 H 81 V 39 H 80 V 37 H 79 V 35 H 78 V 34 H 77 V 32 H 76 V 30 H 75 V 28 H 74 V 27 H 73 V 25 H 72 V 23 H 71 V 22 H 70 V 20 H 69 V 18 H 68 V 16 H 67 V 15 H 66 V 13 H 65 V 11 H 64 V 9 H 63 V 8 H 62 V 6 H 61 V 4 H 60 V 2 H 59 V 1 H 58 V 0"
               style="fill:url(#linearGradient36);fill-opacity:1;fill-rule:nonzero;stroke:none"
               id="path38" /></g></g></g></g></g></svg>
