<?xml version="1.0" encoding="UTF-8" standalone="no"?>
<svg
   xmlns:dc="http://purl.org/dc/elements/1.1/"
   xmlns:cc="http://creativecommons.org/ns#"
   xmlns:rdf="http://www.w3.org/1999/02/22-rdf-syntax-ns#"
   xmlns:svg="http://www.w3.org/2000/svg"
   xmlns="http://www.w3.org/2000/svg"
   xmlns:sodipodi="http://sodipodi.sourceforge.net/DTD/sodipodi-0.dtd"
   xmlns:inkscape="http://www.inkscape.org/namespaces/inkscape"
   version="1.1"
   id="svg2"
   xml:space="preserve"
   width="20.226667"
   height="18.613333"
   viewBox="0 0 20.226667 18.613333"
   sodipodi:docname="hamburger.eps"><metadata
     id="metadata8"><rdf:RDF><cc:Work
         rdf:about=""><dc:format>image/svg+xml</dc:format><dc:type
           rdf:resource="http://purl.org/dc/dcmitype/StillImage" /></cc:Work></rdf:RDF></metadata><defs
     id="defs6" /><sodipodi:namedview
     pagecolor="#ffffff"
     bordercolor="#666666"
     borderopacity="1"
     objecttolerance="10"
     gridtolerance="10"
     guidetolerance="10"
     inkscape:pageopacity="0"
     inkscape:pageshadow="2"
     inkscape:window-width="640"
     inkscape:window-height="480"
     id="namedview4" /><g
     id="g10"
     inkscape:groupmode="layer"
     inkscape:label="ink_ext_XXXXXX"
     transform="matrix(1.3333333,0,0,-1.3333333,0,18.613333)"><g
       id="g12"
       transform="scale(0.1)"><path
         d="M 16.668,33.332 H 135 c 9.172,0 16.672,-7.5 16.672,-16.6679 0,-9.16019 -7.5,-16.66019375 -16.672,-16.66019375 H 16.668 C 7.5,0.00390625 0,7.50391 0,16.6641 0,25.832 7.5,33.332 16.668,33.332"
         style="fill:#d7d6d4;fill-opacity:1;fill-rule:nonzero;stroke:none"
         id="path14" /><path
         d="M 16.668,87.2422 H 135 c 9.172,0 16.672,-7.5 16.672,-16.6641 0,-9.164 -7.5,-16.6679 -16.672,-16.6679 H 16.668 C 7.5,53.9102 0,61.4141 0,70.5781 0,79.7422 7.5,87.2422 16.668,87.2422"
         style="fill:#d7d6d4;fill-opacity:1;fill-rule:nonzero;stroke:none"
         id="path16" /><path
         d="M 16.668,139.582 H 135 c 9.172,0 16.672,-7.5 16.672,-16.664 0,-9.172 -7.5,-16.672 -16.672,-16.672 H 16.668 C 7.5,106.246 0,113.746 0,122.918 c 0,9.164 7.5,16.664 16.668,16.664"
         style="fill:#d7d6d4;fill-opacity:1;fill-rule:nonzero;stroke:none"
         id="path18" /></g></g></svg>
