<?xml version="1.0" encoding="UTF-8" standalone="no"?>
<svg
   xmlns:dc="http://purl.org/dc/elements/1.1/"
   xmlns:cc="http://creativecommons.org/ns#"
   xmlns:rdf="http://www.w3.org/1999/02/22-rdf-syntax-ns#"
   xmlns:svg="http://www.w3.org/2000/svg"
   xmlns="http://www.w3.org/2000/svg"
   xmlns:sodipodi="http://sodipodi.sourceforge.net/DTD/sodipodi-0.dtd"
   xmlns:inkscape="http://www.inkscape.org/namespaces/inkscape"
   version="1.1"
   id="svg2"
   xml:space="preserve"
   width="27.746668"
   height="14.28"
   viewBox="0 0 27.746668 14.28"
   sodipodi:docname="instruments.eps"><metadata
     id="metadata8"><rdf:RDF><cc:Work
         rdf:about=""><dc:format>image/svg+xml</dc:format><dc:type
           rdf:resource="http://purl.org/dc/dcmitype/StillImage" /></cc:Work></rdf:RDF></metadata><defs
     id="defs6"><clipPath
       clipPathUnits="userSpaceOnUse"
       id="clipPath20"><path
         d="M 0,0 H 208 V 107 H 0 Z"
         id="path18" /></clipPath><clipPath
       clipPathUnits="userSpaceOnUse"
       id="clipPath26"><path
         d="m 61.8828,63.4102 c -0.7226,-2.375 -3.8945,-4.8555 -6.4258,-3.5118 -2.1172,1.1094 -2.8906,4.9571 -1.3437,6.7852 0.75,0.9062 2.3515,1.4219 3.4883,1.4219 1.7304,0 3.8164,-1.4688 4.2812,-3.2266 0.1289,-0.4648 0.1289,-0.9805 0,-1.4687 z m -7.3281,-7.793 c -0.5664,-0.6758 -1.1367,-1.3438 -1.7031,-2.0195 -1.086,-1.3125 -2.1914,-2.6055 -3.2774,-3.8946 -4.289,-5.0586 -8.6484,-10.25 -12.9336,-15.4062 -2.1679,-2.586 -4.3359,-5.1953 -6.4765,-7.793 -1.9883,-2.4023 -3.7461,-5.6328 -6.8633,-6.6601 -2.5313,-0.8008 -5.836,0.5195 -6.0391,3.4296 -0.2617,3.3594 2.9649,6.3282 5.0039,8.5743 7.3282,8.0468 14.4024,16.5898 20.5703,25.5742 0.6993,1.0078 1.3672,2.0351 2.0391,3.0703 0.6719,1.0547 1.3164,2.1406 1.9609,3.2539 0.5704,1.0039 2.0938,3.6875 3.1797,1.7773 0.1797,-0.332 0.2539,-0.7226 0.3594,-1.0859 0.332,-1.5234 1.1875,-2.9141 2.1406,-4.1016 0.2578,-0.3125 2.9414,-3.0468 3.4297,-3.0468 -0.3047,-0.125 -1.1836,-1.4453 -1.3906,-1.6719 z m 38.9766,51.5118 c 0.8945,-2.012 1.0273,-4.801 -0.5977,-6.27 -1.9102,-1.7262 -5.3398,-1.2145 -6.6602,-3.7184 0,0 -0.5664,-1.289 0.0782,-3.5078 0,0 -10.2188,2.0352 -5.8828,-6.8633 0,0 0.5664,-1.0625 -1.0586,-0.9062 -1.6524,0.1523 -9.0899,1.1328 -4.6758,-6.2188 0,0 0.1562,-0.3125 -1.3125,-0.1562 -2.0117,0.2344 -4.8516,1.4687 -6.1719,-0.8008 -1.2891,-2.2187 0.0313,-5.7031 0.7773,-7.8711 -0.1562,0.4649 -2.4296,0.6211 -2.789,0.6211 -1.9102,0.0781 -3.4336,-0.8789 -4.5938,-2.3242 -0.5937,0.414 -1.2109,0.6719 -1.8867,0.9023 -1.1836,0.4375 -2.1133,0.4375 -3.1992,-0.3633 -1.1367,-0.8476 -1.8594,-2.4257 -3.4297,-2.5273 -0.8789,-0.0547 -1.6523,0.3594 -1.9336,1.2148 -0.6523,1.754 1.4141,3.7657 2.1367,5.1875 0.7539,1.4961 1.3438,3.0469 1.7813,4.6719 0.3398,1.2891 0.6211,2.7344 1.6523,3.6914 0.8008,0.7969 1.8086,1.1094 2.9453,1.0039 1.7813,-0.1797 3.25,1.1875 2.7852,3.0743 -0.1523,0.6679 -0.5703,1.2343 -1.0313,1.7265 -3.332,3.5352 -9.2421,5.1602 -13.8828,5.8594 -3.4336,0.543 -6.9453,0.6953 -10.4062,0.4101 -3.043,-0.2578 -7.5352,-0.4101 -9.6524,-2.9921 -2.9921,-3.6133 3.3282,-5.8594 5.086,-7.9258 C 33.3125,81.0352 31.582,78.3516 30.5508,76.4688 24.4063,65.293 17.3867,54.6602 9.90234,44.3359 3.83594,35.9492 -3.46875,24.4063 1.82422,13.9063 5.87891,5.83203 15.375,1.38672 24.2031,3.22266 33.3984,5.14844 40.7227,13.8789 45.8633,20.9102 c 11.1484,15.2421 20.4062,30.4687 31.5586,45.6953 1.3437,1.8086 2.6601,3.6133 3.9961,5.4492 0,0 9.6054,-0.7227 4.3125,5.9336 l 4.8554,6.2226 c 0,0 7.4063,-2.5312 5.5469,6.8164 0.1328,-0.6445 1.7813,-0.621 2.2461,-0.621 2.0621,-0.0235 1.9371,2.0898 3.1481,3.1484 0.52,0.4883 1.524,0.875 2.246,0.7226 -2.89,4.6993 -6.3472,9.0077 -10.2417,12.8517 z"
         id="path24" /></clipPath><linearGradient
       x1="0"
       y1="0"
       x2="1"
       y2="0"
       gradientUnits="userSpaceOnUse"
       gradientTransform="matrix(0,104.321,104.321,0,51.8866,2.809)"
       spreadMethod="pad"
       id="linearGradient36"><stop
         style="stop-opacity:1;stop-color:#50ade5"
         offset="0"
         id="stop28" /><stop
         style="stop-opacity:1;stop-color:#50ade5"
         offset="0.117318"
         id="stop30" /><stop
         style="stop-opacity:1;stop-color:#87cf3f"
         offset="0.678771"
         id="stop32" /><stop
         style="stop-opacity:1;stop-color:#bfe25a"
         offset="1"
         id="stop34" /></linearGradient><clipPath
       clipPathUnits="userSpaceOnUse"
       id="clipPath46"><path
         d="M 0,0 H 208 V 107 H 0 Z"
         id="path44" /></clipPath><clipPath
       clipPathUnits="userSpaceOnUse"
       id="clipPath52"><path
         d="m 161.664,55.4609 c -0.344,-5.2656 -4.609,-9.0703 -10.012,-8.914 -5.464,0.1875 -9.519,4.6172 -9.285,10.1367 0.203,5.3672 4.766,9.4258 10.266,9.1367 5.387,-0.289 9.363,-4.8672 9.031,-10.3594 z m 23.699,-14.3867 c 4.582,-1.6211 -3.55,-9.6679 -4.785,-11.0234 -2.371,-2.668 -5.058,-5.168 -7.996,-7.1992 -1.504,-1.043 -3.508,-2.625 -5.496,-2.3711 -0.949,0.1172 -1.898,1.0547 -1.777,2.0586 0,0.0507 0,0.1289 0.015,0.207 0.383,1.543 2.492,3.0156 3.586,4.043 1.531,1.4531 3.153,2.8593 4.656,4.3359 1.965,1.8945 3.86,3.8359 5.762,5.7813 1.281,1.2968 3.82,4.9609 6.035,4.1679 z m -81.769,53.4805 c 1.371,0.7578 2.66,0.1289 4.398,-1.9258 4.278,-5.0273 8.828,-9.8516 13.555,-14.4648 2.324,-2.293 1.973,-3.5821 -0.027,-5.8594 -7.422,-8.3399 -7.2,-17.0664 0.386,-22.5859 1.504,-1.129 3.313,-2 5.11,-2.6641 8.972,-3.2656 9.914,-4.6406 10.515,-14.3477 0.547,-8.9648 2.864,-18.125 9.426,-24.64841 5.754,-5.73437 13.926,-8.781246 22.023,-7.910152 12.547,1.367192 23.602,11.707062 31.024,21.238262 6.152,7.8906 10.019,17.8321 7.129,27.9063 -2.547,8.9062 -9.68,15.6328 -18.379,18.5117 -1.152,0.375 -2.332,0.6953 -3.543,0.9648 -3.613,0.7578 -7.297,1.5196 -10.957,1.6836 -6.606,0.3008 -10.316,3.8242 -12.285,9.7539 -0.61,1.8164 -1.074,3.7539 -1.965,5.4375 -1.399,2.6485 -3.391,4.7383 -6.816,4.5118 -3.516,-0.25 -5.547,-2.3985 -6.641,-5.4571 -2.902,-8.1523 -6.367,-9.0195 -12.649,-2.8398 -6.21,6.1015 -12.183,12.4609 -18.472,18.4886 -1.457,1.406 -1.867,2.367 -1.34,3.238 -5.195,-3.7188 -8.875,-7.3438 -10.492,-9.0313 z"
         id="path50" /></clipPath><linearGradient
       x1="0"
       y1="0"
       x2="1"
       y2="0"
       gradientUnits="userSpaceOnUse"
       gradientTransform="matrix(-105.031,1.06177,1.06177,105.031,208.196,51.1041)"
       spreadMethod="pad"
       id="linearGradient62"><stop
         style="stop-opacity:1;stop-color:#50ade5"
         offset="0"
         id="stop54" /><stop
         style="stop-opacity:1;stop-color:#50ade5"
         offset="0.117318"
         id="stop56" /><stop
         style="stop-opacity:1;stop-color:#87cf3f"
         offset="0.678771"
         id="stop58" /><stop
         style="stop-opacity:1;stop-color:#bfe25a"
         offset="1"
         id="stop60" /></linearGradient></defs><sodipodi:namedview
     pagecolor="#ffffff"
     bordercolor="#666666"
     borderopacity="1"
     objecttolerance="10"
     gridtolerance="10"
     guidetolerance="10"
     inkscape:pageopacity="0"
     inkscape:pageshadow="2"
     inkscape:window-width="640"
     inkscape:window-height="480"
     id="namedview4" /><g
     id="g10"
     inkscape:groupmode="layer"
     inkscape:label="ink_ext_XXXXXX"
     transform="matrix(1.3333333,0,0,-1.3333333,0,14.28)"><g
       id="g12"
       transform="scale(0.1)"><g
         id="g14"><g
           id="g16"
           clip-path="url(#clipPath20)"><g
             id="g22"
             clip-path="url(#clipPath26)"><path
               d="M 17,2 V 3 H 14 V 4 H 11 V 5 H 9 V 6 H 8 V 7 H 6 V 8 H 5 V 9 H 4 v 1 H 3 v 1 H 2 v 2 H 1 v 2 H 0 v 12 h 1 v 4 h 1 v 2 h 1 v 2 h 1 v 2 h 1 v 2 h 1 v 2 h 1 v 1 h 1 v 2 h 1 v 1 h 1 v 1 h 1 v 2 h 1 v 1 h 1 v 2 h 1 v 1 h 1 v 2 h 1 v 1 h 1 v 2 h 1 v 1 h 1 v 2 h 1 v 1 h 1 v 2 h 1 v 1 h 1 v 2 h 1 v 2 h 1 v 1 h 1 v 2 h 1 v 2 h 1 v 1 h 1 v 2 h 1 v 2 h 1 v 2 h 1 v 2 h -1 v 1 h -1 v 1 h -1 v 1 h -2 v 1 h -1 v 2 h -1 v 3 h 1 v 1 h 1 v 1 h 2 v 1 h 7 v 1 h 2 v -1 h 12 v -1 h 3 v -1 h 3 v -1 h 2 v -1 h 1 v -1 h 2 v -2 h 1 v -4 h -2 v -1 h -4 v -2 h -1 v -3 h -1 v -2 h -1 v -3 h -1 v -1 h -1 v -3 h 2 v 1 h 1 v 1 h 2 v 1 h 3 v -1 h 2 v 1 h 2 v 1 h 4 v 2 h -1 v 5 h 1 v 1 h 2 v 1 h 2 v -1 h 3 v 1 h -1 v 4 h 1 v 1 h 6 v 1 h -1 v 6 h 1 v 1 h 6 v 4 h 1 v 1 h 1 v 1 h 3 v 1 h 2 v 2 h 1 v 2 h -1 v 2 h 2 v -1 h 1 v -1 h 1 v -1 h 1 v -1 h 1 v -1 h 1 v -2 h 1 v -1 h 1 v -2 h 1 v -1 h 1 v -2 h -1 v -1 h -1 v -1 h -1 v -1 h -1 v -1 h -3 v -5 h -1 v -1 h -2 v -1 h -4 v -1 h -1 v -2 h -1 v -1 h -1 v -3 h 1 V 73 H 87 V 72 H 82 V 71 H 81 V 70 H 80 V 68 H 79 V 67 H 78 V 66 H 77 V 64 H 76 V 63 H 75 V 61 H 74 V 60 H 73 V 58 H 72 V 57 H 71 V 56 H 70 V 54 H 69 V 53 H 68 V 51 H 67 V 50 H 66 V 48 H 65 V 47 H 64 V 45 H 63 V 44 H 62 V 42 H 61 V 41 H 60 V 39 H 59 V 38 H 58 V 36 H 57 V 35 H 56 V 34 H 55 V 32 H 54 V 31 H 53 V 29 H 52 V 28 H 51 V 26 H 50 V 25 H 49 V 23 H 48 V 22 H 47 V 21 H 46 V 19 H 45 V 18 H 44 V 17 H 43 V 15 H 42 V 14 H 41 V 13 H 40 V 12 H 39 V 11 H 38 V 10 H 37 V 9 H 36 V 8 H 34 V 7 H 33 V 6 H 31 V 5 H 29 V 4 H 27 V 3 H 24 V 2 Z m 3,19 v -1 h 3 v 1 h 2 v 1 h 1 v 1 h 1 v 1 h 1 v 2 h 1 v 1 h 1 v 1 h 1 v 1 h 1 v 1 h 1 v 2 h 1 v 1 h 1 v 1 h 1 v 1 h 1 v 1 h 1 v 2 h 1 v 1 h 1 v 1 h 1 v 1 h 1 v 1 h 1 v 2 h 1 v 1 h 1 v 1 h 1 v 1 h 1 v 1 h 1 v 2 h 1 v 1 h 1 v 1 h 1 v 1 h 1 v 1 h 1 v 1 h 1 v 3 h -1 v 1 h -1 v 2 h -1 v 1 h -1 v 3 h -2 v -1 h -1 v -2 h -1 v -2 h -1 v -1 h -1 v -2 h -1 v -1 h -1 v -2 h -1 v -1 h -1 v -1 h -1 v -2 h -1 v -1 h -1 v -1 h -1 v -2 h -1 v -1 h -1 v -1 h -1 v -1 h -1 v -2 h -1 v -1 h -1 v -1 h -1 v -1 h -1 v -1 h -1 v -1 h -1 v -2 h -1 v -1 h -1 v -1 h -1 v -1 h -1 v -1 h -1 v -1 h -1 v -1 h -1 v -2 h -1 v -4 h 1 v -1 z m 36,40 v -1 h 2 v 1 h 2 v 1 h 1 v 4 h -1 v 1 h -2 v 1 h -1 v -1 h -2 v -1 h -1 v -4 h 1 v -1"
               style="fill:url(#linearGradient36);fill-opacity:1;fill-rule:nonzero;stroke:none"
               id="path38" /></g></g></g><g
         id="g40"><g
           id="g42"
           clip-path="url(#clipPath46)"><g
             id="g48"
             clip-path="url(#clipPath52)"><path
               d="m 159,0 v 1 h -3 v 1 h -2 v 1 h -2 v 1 h -2 v 1 h -1 v 1 h -1 v 1 h -1 v 1 h -1 v 1 h -1 v 1 h -1 v 1 h -1 v 2 h -1 v 2 h -1 v 2 h -1 v 2 h -1 v 4 h -1 v 5 h -1 v 9 h -1 v 4 h -1 v 1 h -1 v 1 h -1 v 1 h -2 v 1 h -2 v 1 h -2 v 1 h -2 v 1 h -2 v 1 h -2 v 1 h -1 v 1 h -1 v 1 h -1 v 1 h -1 v 3 h -1 v 9 h 1 v 3 h 1 v 1 h 1 v 2 h 1 v 1 h 1 v 1 h 1 v 4 h -1 v 1 h -1 v 1 h -1 v 1 h -1 v 1 h -1 v 1 h -1 v 1 h -1 v 2 h -1 v 1 h -1 v 1 h -1 v 1 h -1 v 1 h -1 v 1 h -1 v 1 h -1 v 1 h -1 v 1 h -1 v 1 h -3 v 1 h 1 v 1 h 1 v 1 h 1 v 1 h 1 v 1 h 1 v 1 h 1 v 1 h 1 v 1 h 1 v 1 h 2 v 1 h 2 v -3 h 1 v -1 h 1 v -1 h 1 v -1 h 1 v -1 h 1 v -1 h 1 v -1 h 1 v -1 h 1 v -1 h 1 v -1 h 1 v -1 h 1 v -1 h 1 v -1 h 1 v -1 h 1 v -1 h 1 v -1 h 1 v -1 h 1 v -1 h 1 v -1 h 1 v -1 h 1 v -1 h 2 v -1 h 1 v -1 h 4 v 1 h 2 v 2 h 1 v 2 h 1 v 2 h 1 v 2 h 1 v 1 h 1 v 1 h 3 v 1 h 3 v -1 h 3 v -1 h 1 v -1 h 1 v -2 h 1 v -2 h 1 v -3 h 1 v -3 h 1 v -2 h 1 v -1 h 1 v -1 h 1 v -1 h 2 v -1 h 2 v -1 h 8 v -1 h 6 v -1 h 4 v -1 h 2 v -1 h 2 v -1 h 2 v -1 h 2 v -1 h 1 v -1 h 1 v -1 h 2 v -2 h 1 v -1 h 1 v -1 h 1 v -1 h 1 v -2 h 1 v -2 h 1 v -3 h 1 V 34 h -1 v -2 h -1 v -3 h -1 v -2 h -1 v -2 h -1 v -1 h -1 v -2 h -1 v -1 h -1 v -1 h -1 v -2 h -1 v -1 h -1 v -1 h -1 v -1 h -1 v -1 h -1 v -1 h -1 v -1 h -1 v -1 h -1 v -1 h -1 V 9 h -2 V 8 h -1 V 7 h -1 V 6 h -2 V 5 h -2 V 4 h -1 V 3 h -2 V 2 h -2 V 1 h -3 V 0 Z m 8,22 v -1 h 2 v 1 h 2 v 1 h 1 v 1 h 2 v 1 h 1 v 1 h 1 v 1 h 1 v 1 h 1 v 1 h 1 v 1 h 1 v 1 h 1 v 1 h 1 v 1 h 1 v 1 h 1 v 2 h 1 v 1 h 1 v 3 h -1 v 1 h -1 v -1 h -1 v -1 h -1 v -1 h -1 v -1 h -1 v -1 h -1 v -1 h -1 v -1 h -1 v -1 h -1 v -1 h -1 v -1 h -1 v -1 h -1 v -1 h -1 v -1 h -1 v -1 h -1 v -1 h -1 v -1 h -2 v -2 h -1 v -1 z m -17,26 v -1 h 4 v 1 h 2 v 1 h 2 v 1 h 1 v 1 h 1 v 2 h 1 v 6 h -1 v 2 h -1 v 1 h -1 v 1 h -1 v 1 h -2 v 1 h -6 v -1 h -2 v -1 h -1 v -1 h -1 v -1 h -1 v -2 h -1 v -6 h 1 v -1 h 1 v -2 h 1 v -1 h 2 v -1"
               style="fill:url(#linearGradient62);fill-opacity:1;fill-rule:nonzero;stroke:none"
               id="path64" /></g></g></g></g></g></svg>
