<?xml version="1.0" encoding="UTF-8" standalone="no"?>
<svg
   xmlns:dc="http://purl.org/dc/elements/1.1/"
   xmlns:cc="http://creativecommons.org/ns#"
   xmlns:rdf="http://www.w3.org/1999/02/22-rdf-syntax-ns#"
   xmlns:svg="http://www.w3.org/2000/svg"
   xmlns="http://www.w3.org/2000/svg"
   xmlns:sodipodi="http://sodipodi.sourceforge.net/DTD/sodipodi-0.dtd"
   xmlns:inkscape="http://www.inkscape.org/namespaces/inkscape"
   version="1.1"
   id="svg2"
   xml:space="preserve"
   width="5.2399998"
   height="22.48"
   viewBox="0 0 5.2399998 22.48"
   sodipodi:docname="kebab-icon.eps"><metadata
     id="metadata8"><rdf:RDF><cc:Work
         rdf:about=""><dc:format>image/svg+xml</dc:format><dc:type
           rdf:resource="http://purl.org/dc/dcmitype/StillImage" /></cc:Work></rdf:RDF></metadata><defs
     id="defs6" /><sodipodi:namedview
     pagecolor="#ffffff"
     bordercolor="#666666"
     borderopacity="1"
     objecttolerance="10"
     gridtolerance="10"
     guidetolerance="10"
     inkscape:pageopacity="0"
     inkscape:pageshadow="2"
     inkscape:window-width="640"
     inkscape:window-height="480"
     id="namedview4" /><g
     id="g10"
     inkscape:groupmode="layer"
     inkscape:label="ink_ext_XXXXXX"
     transform="matrix(1.3333333,0,0,-1.3333333,0,22.48)"><g
       id="g12"
       transform="scale(0.1)"><path
         d="m 39.2734,149.008 c 0,-10.848 -8.789,-19.637 -19.6367,-19.637 C 8.78906,129.371 0,138.16 0,149.008 c 0,10.847 8.78906,19.637 19.6367,19.637 10.8477,0 19.6367,-8.79 19.6367,-19.637"
         style="fill:#797a7b;fill-opacity:1;fill-rule:nonzero;stroke:none"
         id="path14" /><path
         d="m 39.2734,87.4023 c 0,-10.8437 -8.789,-19.6328 -19.6367,-19.6328 C 8.78906,67.7695 0,76.5586 0,87.4023 c 0,10.8438 8.78906,19.6327 19.6367,19.6327 10.8477,0 19.6367,-8.7889 19.6367,-19.6327"
         style="fill:#797a7b;fill-opacity:1;fill-rule:nonzero;stroke:none"
         id="path16" /><path
         d="M 39.2734,19.6367 C 39.2734,8.79688 30.4844,-0.00390625 19.6367,-0.00390625 8.78906,-0.00390625 0,8.79688 0,19.6367 c 0,10.8477 8.78906,19.6367 19.6367,19.6367 10.8477,0 19.6367,-8.789 19.6367,-19.6367"
         style="fill:#797a7b;fill-opacity:1;fill-rule:nonzero;stroke:none"
         id="path18" /></g></g></svg>
