<?xml version="1.0" encoding="UTF-8" standalone="no"?>
<svg
   xmlns:dc="http://purl.org/dc/elements/1.1/"
   xmlns:cc="http://creativecommons.org/ns#"
   xmlns:rdf="http://www.w3.org/1999/02/22-rdf-syntax-ns#"
   xmlns:svg="http://www.w3.org/2000/svg"
   xmlns="http://www.w3.org/2000/svg"
   xmlns:sodipodi="http://sodipodi.sourceforge.net/DTD/sodipodi-0.dtd"
   xmlns:inkscape="http://www.inkscape.org/namespaces/inkscape"
   version="1.1"
   id="svg2"
   xml:space="preserve"
   width="25.120001"
   height="25.120001"
   viewBox="0 0 25.120001 25.120001"
   sodipodi:docname="like-icon.eps"><metadata
     id="metadata8"><rdf:RDF><cc:Work
         rdf:about=""><dc:format>image/svg+xml</dc:format><dc:type
           rdf:resource="http://purl.org/dc/dcmitype/StillImage" /></cc:Work></rdf:RDF></metadata><defs
     id="defs6" /><sodipodi:namedview
     pagecolor="#ffffff"
     bordercolor="#666666"
     borderopacity="1"
     objecttolerance="10"
     gridtolerance="10"
     guidetolerance="10"
     inkscape:pageopacity="0"
     inkscape:pageshadow="2"
     inkscape:window-width="640"
     inkscape:window-height="480"
     id="namedview4" /><g
     id="g10"
     inkscape:groupmode="layer"
     inkscape:label="ink_ext_XXXXXX"
     transform="matrix(1.3333333,0,0,-1.3333333,0,25.12)"><g
       id="g12"
       transform="scale(0.1)"><path
         d="m 188.441,94.2266 c 0,-52.043 -42.175,-94.23050625 -94.2144,-94.23050625 C 42.1836,-0.00390625 0,42.1836 0,94.2266 c 0,52.0354 42.1836,94.2184 94.2266,94.2184 52.0394,0 94.2144,-42.183 94.2144,-94.2184"
         style="fill:#deddda;fill-opacity:1;fill-rule:nonzero;stroke:none"
         id="path14" /><path
         d="M 112.605,156.68 73.1367,115.52 c -0.5312,-0.559 -0.6679,-0.899 -0.6679,-1.676 L 72.4609,56.2383 c 0,-0.6367 0.25,-1.2305 0.7227,-1.7031 0.4609,-0.4571 1.0508,-0.711 1.6914,-0.711 h 61.734 c 1.09,0 1.825,0.5 2.235,1.5156 1.418,3.4961 4.914,11.0313 8.945,19.7657 5.684,12.2773 12.754,27.5585 15.012,33.8085 v 0 c 0.308,0.863 0.23,1.438 -0.305,2.195 -0.535,0.758 -1.047,1.028 -1.973,1.028 h -44.355 c -4.297,0 -8.309,2.316 -10.453,6.043 -2.149,3.722 -2.145,8.351 0.015,12.07 l 5,8.617 c 3.29,5.672 3.895,12.012 1.875,17.813 z M 136.609,44.1758 H 74.875 c -3.2031,0 -6.2266,1.2617 -8.5156,3.5351 -2.2891,2.3047 -3.5469,5.3204 -3.5469,8.5274 l 0.0078,57.6057 c 0,3.273 1.0977,6 3.3594,8.355 l 48.1793,50.258 3.371,-4.824 c 7.024,-10.055 7.54,-22.93 1.348,-33.602 l -5,-8.621 c -0.43,-0.746 -0.43,-1.668 -0.012,-2.406 0.442,-0.75 1.243,-1.219 2.102,-1.219 l 49.18,0.004 v -0.969 c 1.992,-0.851 3.711,-2.265 5.039,-4.16 2.324,-3.301 2.851,-7.215 1.484,-11.015 v 0 c -2.391,-6.6489 -9.258,-21.4927 -15.32,-34.5942 -3.821,-8.25 -7.434,-16.0547 -8.75,-19.3242 -1.887,-4.6602 -6.172,-7.5508 -11.192,-7.5508"
         style="fill:#838585;fill-opacity:1;fill-rule:nonzero;stroke:none"
         id="path16" /><path
         d="M 53.0938,117.762 V 46.5977 H 27.3984 v 71.1643 h 25.6954"
         style="fill:#838585;fill-opacity:1;fill-rule:nonzero;stroke:none"
         id="path18" /></g></g></svg>
