<?xml version="1.0" encoding="UTF-8" standalone="no"?>
<svg
   xmlns:dc="http://purl.org/dc/elements/1.1/"
   xmlns:cc="http://creativecommons.org/ns#"
   xmlns:rdf="http://www.w3.org/1999/02/22-rdf-syntax-ns#"
   xmlns:svg="http://www.w3.org/2000/svg"
   xmlns="http://www.w3.org/2000/svg"
   xmlns:sodipodi="http://sodipodi.sourceforge.net/DTD/sodipodi-0.dtd"
   xmlns:inkscape="http://www.inkscape.org/namespaces/inkscape"
   version="1.1"
   id="svg2"
   xml:space="preserve"
   width="26.32"
   height="19.893333"
   viewBox="0 0 26.32 19.893333"
   sodipodi:docname="theatre.eps"><metadata
     id="metadata8"><rdf:RDF><cc:Work
         rdf:about=""><dc:format>image/svg+xml</dc:format><dc:type
           rdf:resource="http://purl.org/dc/dcmitype/StillImage" /></cc:Work></rdf:RDF></metadata><defs
     id="defs6"><clipPath
       clipPathUnits="userSpaceOnUse"
       id="clipPath20"><path
         d="M 0,0 H 197 V 149 H 0 Z"
         id="path18" /></clipPath><clipPath
       clipPathUnits="userSpaceOnUse"
       id="clipPath26"><path
         d="m 172.188,43.6055 c -2.606,-1.7774 -5.508,-1.8242 -8.426,-1.1914 -5.821,1.2617 -10.528,4.289 -13.977,9.1015 -1.426,1.9922 -2.332,4.211 -2.078,6.7188 0.215,2.1601 0.625,2.4531 3.203,2.3554 9.746,-0.6445 17.098,-5.5781 22.078,-14.2226 0.754,-1.2969 0.215,-2.0781 -0.8,-2.7617 z M 117.852,25.9219 c -10.75,6.5625 -12.762,18.8359 -9.168,25.7695 5.632,-17.793 18.574,-24.0312 36.289,-22.8008 -4.465,-7.1992 -18.078,-8.4961 -27.121,-2.9687 z m -5.039,55.375 c 0.285,0.9531 0.753,1.4258 1.855,1.3476 10.371,-0.6953 18.156,-5.3906 23.223,-14.4179 0.656,-1.1641 0.293,-1.836 -0.575,-2.5118 -1.867,-1.4609 -4.062,-1.7265 -6.847,-1.707 -7.039,0.9883 -13.016,4.3672 -16.778,11.0664 -1.082,1.9258 -1.531,4.0117 -0.878,6.2227 z m 83.878,-20.7656 c -5.421,9.1093 -12.777,16.4453 -21.054,22.9921 -10.352,8.1797 -21.563,14.9102 -33.809,19.9176 -7.598,3.11 -15.43,5.403 -23.711,5.95 -1.711,0.109 -2.676,-0.379 -3.578,-1.836 C 108.566,97.8633 103.313,87.8398 99.375,77.1563 94.0234,62.6211 91.0547,47.7578 92.9102,32.2188 c 0.9687,-8.0586 3.2187,-15.7032 7.4338,-22.74224 10.437,-17.4414 35.859,-6.86718 49.207,0.51563 7.91,4.37501 15.246,9.78511 21.816,15.94921 9.719,9.0977 18.02,19.3164 25.285,30.4102 1.063,1.6289 0.965,2.625 0.039,4.1797 z"
         id="path24" /></clipPath><linearGradient
       x1="0"
       y1="0"
       x2="1"
       y2="0"
       gradientUnits="userSpaceOnUse"
       gradientTransform="matrix(0,109.406,109.406,0,144.887,-5.7e-6)"
       spreadMethod="pad"
       id="linearGradient36"><stop
         style="stop-opacity:1;stop-color:#50ade5"
         offset="0"
         id="stop28" /><stop
         style="stop-opacity:1;stop-color:#50ade5"
         offset="0.117318"
         id="stop30" /><stop
         style="stop-opacity:1;stop-color:#87cf3f"
         offset="0.678771"
         id="stop32" /><stop
         style="stop-opacity:1;stop-color:#bfe25a"
         offset="1"
         id="stop34" /></linearGradient><clipPath
       clipPathUnits="userSpaceOnUse"
       id="clipPath46"><path
         d="M 0,0 H 197 V 149 H 0 Z"
         id="path44" /></clipPath><clipPath
       clipPathUnits="userSpaceOnUse"
       id="clipPath52"><path
         d="m 103.098,105.184 c -0.371,-2.266 -1.618,-3.977 -3.3871,-5.3363 -4.3359,-3.3516 -9.4336,-4.2188 -14.6523,-4.4024 -5.0742,0.2227 -9.8672,1.0742 -14.0039,4.082 -1.9024,1.3867 -3.3086,3.1207 -3.7695,5.5077 -0.1602,0.86 -0.0157,1.399 0.7734,1.828 11.3555,6.254 22.7656,6.403 34.2654,-0.039 0.742,-0.414 0.891,-0.875 0.774,-1.64 z M 86.1719,69.5352 C 85.4141,67.1133 84.3984,64.7617 83.0273,62.6211 81.6406,60.4336 79.918,58.4609 77.9297,56.7891 75.9492,55.1211 73.7148,53.7617 71.3281,52.7383 68.8672,51.6836 66.2461,51 63.5859,50.6758 60.9531,50.3555 58.2852,50.3945 55.6641,50.7344 41.8164,52.5508 34.1055,63.332 33.457,70.5977 c 1.1133,-0.2227 1.7774,-1.0938 2.6133,-1.6602 3.961,-2.6836 8.1524,-4.9023 12.6524,-6.5703 7.8242,-2.9102 15.4882,-2.1797 23.0859,0.8476 3.3516,1.3438 6.6133,2.9102 9.7148,4.75 0.8907,0.5235 1.7579,1.0821 2.6172,1.6485 0.6641,0.4336 1.3125,0.918 2.0235,1.2773 0.4492,0.2266 0.3203,-0.2929 0.2539,-0.5468 -0.0782,-0.2696 -0.1641,-0.543 -0.2461,-0.8086 z M 19.918,99.8203 c -0.6836,0.5277 -1.3282,1.1327 -1.8555,1.8087 -2.5625,3.289 -2.168,4.676 1.5977,6.461 10.4687,4.973 20.7539,4.558 30.9961,-0.731 1.7382,-0.898 2,-1.914 1.3359,-3.507 -1.0977,-2.657 -3.168,-4.3637 -5.6406,-5.6645 -3.7696,-1.9922 -7.8594,-2.6172 -12.2071,-2.7422 -5.0429,0.2305 -10.0195,1.0938 -14.2265,4.375 z m 98.656,33.5507 c -0.039,1.359 -0.683,2.106 -1.804,2.746 -29.1489,16.633 -66.6216,15.754 -97.9887,6.254 -2.3829,-0.723 -4.7383,-1.516 -7.0665,-2.398 -2.06246,-0.785 -4.09371,-1.629 -6.09761,-2.539 -1.53125,-0.692 -3.94531,-1.426 -5.035159,-2.77 -0.875,-1.078 -0.5390622,-2.715 -0.414062,-3.953 C 0.625,125.934 1.82813,112.563 3.17969,103.527 7.88281,72.0781 21.5938,36.0352 52.7852,21.7031 c 4.5976,-2.1211 9.0351,-2.289 13.664,-0.1289 6.6094,3.086 12.5,7.1289 17.7149,12.1797 1.0742,1.0313 1.3593,2.1094 1.2578,3.6133 -0.2852,4.168 -0.211,8.3476 0.1054,12.5391 0.5899,7.7148 2.0899,15.2382 4.3165,22.6367 3.125,10.3633 7.5195,20.2031 12.7462,29.699 1.883,3.41 4.121,6.621 5.918,10.059 1.57,3.019 3.992,3.785 7.097,3.476 2.043,-0.199 2.415,0.032 2.52,2.102 0.254,5.16 0.586,10.316 0.449,15.492 z"
         id="path50" /></clipPath><linearGradient
       x1="0"
       y1="0"
       x2="1"
       y2="0"
       gradientUnits="userSpaceOnUse"
       gradientTransform="matrix(0,129.119,129.119,0,59.3027,20.031)"
       spreadMethod="pad"
       id="linearGradient62"><stop
         style="stop-opacity:1;stop-color:#50ade5"
         offset="0"
         id="stop54" /><stop
         style="stop-opacity:1;stop-color:#50ade5"
         offset="0.117318"
         id="stop56" /><stop
         style="stop-opacity:1;stop-color:#87cf3f"
         offset="0.678771"
         id="stop58" /><stop
         style="stop-opacity:1;stop-color:#bfe25a"
         offset="1"
         id="stop60" /></linearGradient></defs><sodipodi:namedview
     pagecolor="#ffffff"
     bordercolor="#666666"
     borderopacity="1"
     objecttolerance="10"
     gridtolerance="10"
     guidetolerance="10"
     inkscape:pageopacity="0"
     inkscape:pageshadow="2"
     inkscape:window-width="640"
     inkscape:window-height="480"
     id="namedview4" /><g
     id="g10"
     inkscape:groupmode="layer"
     inkscape:label="ink_ext_XXXXXX"
     transform="matrix(1.3333333,0,0,-1.3333333,0,19.893333)"><g
       id="g12"
       transform="scale(0.1)"><g
         id="g14"><g
           id="g16"
           clip-path="url(#clipPath20)"><g
             id="g22"
             clip-path="url(#clipPath26)"><path
               d="m 111,0 v 1 h -3 v 1 h -1 v 1 h -2 v 1 h -1 v 1 h -1 v 1 h -1 v 1 h -1 v 1 h -1 v 2 h -1 v 1 h -1 v 3 h -1 v 2 h -1 v 3 h -1 v 3 h -1 v 4 h -1 v 5 h -1 v 20 h 1 v 7 h 1 v 5 h 1 v 4 h 1 v 3 h 1 v 4 h 1 v 3 h 1 v 2 h 1 v 3 h 1 v 2 h 1 v 2 h 1 v 2 h 1 v 3 h 1 v 2 h 1 v 2 h 1 v 1 h 1 v 2 h 1 v 2 h 1 v 2 h 1 v 2 h 1 v 2 h 1 v 1 h 1 v 2 h 1 v 1 h 7 v -1 h 5 v -1 h 5 v -1 h 3 v -1 h 3 v -1 h 3 v -1 h 2 v -1 h 3 v -1 h 2 v -1 h 2 v -1 h 2 v -1 h 1 v -1 h 2 v -1 h 2 v -1 h 2 v -1 h 2 v -1 h 1 v -1 h 2 v -1 h 1 v -1 h 2 v -1 h 1 v -1 h 2 v -1 h 1 v -1 h 2 v -1 h 1 v -1 h 2 v -1 h 1 v -1 h 1 v -1 h 1 v -1 h 1 v -1 h 1 v -1 h 1 v -1 h 1 v -1 h 2 v -1 h 1 v -1 h 1 v -1 h 1 v -1 h 1 v -2 h 1 v -1 h 1 v -1 h 1 v -2 h 1 v -1 h 1 v -1 h 1 v -1 h 1 v -2 h 1 v -7 h -1 v -2 h -1 v -1 h -1 v -1 h -1 v -2 h -1 v -1 h -1 v -1 h -1 v -2 h -1 v -1 h -1 v -1 h -1 v -2 h -1 v -1 h -1 v -1 h -1 v -1 h -1 v -1 h -1 v -1 h -1 v -1 h -1 v -2 h -1 v -1 h -1 v -1 h -1 v -1 h -1 v -1 h -1 v -1 h -1 v -1 h -1 v -1 h -1 v -1 h -1 v -1 h -1 v -1 h -2 v -1 h -1 v -1 h -1 v -1 h -1 v -1 h -1 v -1 h -2 v -1 h -1 v -1 h -2 v -1 h -1 v -1 h -2 v -1 h -1 v -1 h -2 v -1 h -1 v -1 h -2 V 9 h -2 V 8 h -2 V 7 h -2 V 6 h -2 V 5 h -2 V 4 h -3 V 3 h -3 V 2 h -3 V 1 h -4 V 0 Z m 16,24 v -1 h 7 v 1 h 3 v 1 h 3 v 1 h 2 v 1 h 1 v 1 h -6 v 1 h -6 v 1 h -3 v 1 h -3 v 1 h -3 v 1 h -1 v 1 h -1 v 1 h -1 v 1 h -1 v 1 h -2 v 1 h -1 v 1 h -1 v 1 h -1 v 2 h -1 v 2 h -1 v 2 h -1 v 2 h -1 v 2 h -1 V 39 h 1 v -2 h 1 v -2 h 1 v -2 h 1 v -1 h 1 v -1 h 1 v -1 h 1 v -1 h 1 v -1 h 1 v -1 h 1 v -1 h 2 v -1 h 3 v -1 z m 35,20 v -1 h 9 v 1 h 1 v 1 h 1 v 1 h -1 v 2 h -1 v 1 h -1 v 1 h -1 v 1 h -1 v 1 h -1 v 1 h -1 v 1 h -1 v 1 h -1 v 1 h -2 v 1 h -2 v 1 h -2 v 1 h -4 v 1 h -5 v -1 h -1 v -3 h 1 v -3 h 1 v -1 h 1 v -2 h 1 v -1 h 1 v -1 h 2 v -1 h 1 v -1 h 2 v -1 h 2 v -1 z m -35,22 v -1 h 8 v 1 h 2 v 1 h 1 v 1 h -1 v 1 h -1 v 2 h -1 v 1 h -1 v 1 h -1 v 1 h -1 v 1 h -1 v 1 h -1 v 1 h -2 v 1 h -1 v 1 h -2 v 1 h -3 v 1 h -4 v 1 h -4 v -1 h -1 v -4 h 1 v -2 h 1 v -1 h 1 v -2 h 1 v -1 h 1 v -1 h 1 v -1 h 2 v -1 h 1 v -1 h 2 v -1"
               style="fill:url(#linearGradient36);fill-opacity:1;fill-rule:nonzero;stroke:none"
               id="path38" /></g></g></g><g
         id="g40"><g
           id="g42"
           clip-path="url(#clipPath46)"><g
             id="g48"
             clip-path="url(#clipPath52)"><path
               d="m 54,20 v 1 h -2 v 1 h -3 v 1 h -1 v 1 h -2 v 1 h -1 v 1 h -2 v 1 h -2 v 1 h -1 v 1 h -1 v 1 h -1 v 1 h -1 v 1 h -1 v 1 h -2 v 1 h -1 v 1 h -1 v 1 h -1 v 1 h -1 v 2 h -1 v 1 h -1 v 1 h -1 v 1 h -1 v 1 h -1 v 2 h -1 v 1 h -1 v 2 h -1 v 1 h -1 v 2 h -1 v 2 h -1 v 1 h -1 v 2 h -1 v 2 h -1 v 2 h -1 v 2 h -1 v 2 h -1 v 2 h -1 v 3 h -1 v 3 h -1 v 3 H 9 v 3 H 8 v 3 H 7 v 4 H 6 v 4 H 5 v 4 H 4 v 5 H 3 v 6 H 2 v 8 H 1 v 10 H 0 v 14 h 2 v 1 h 2 v 1 h 2 v 1 h 3 v 1 h 2 v 1 h 3 v 1 h 3 v 1 h 3 v 1 h 4 v 1 h 4 v 1 h 5 v 1 h 6 v 1 h 6 v 1 h 36 v -1 h 5 v -1 h 5 v -1 h 4 v -1 h 3 v -1 h 4 v -1 h 3 v -1 h 2 v -1 h 2 v -1 h 3 v -1 h 2 v -1 h 2 v -1 h 1 v -1 h 2 v -20 h -1 v -1 h -6 v -1 h -2 v -1 h -1 v -2 h -1 v -2 h -1 v -2 h -1 v -1 h -1 v -2 h -1 v -2 h -1 v -1 h -1 v -2 h -1 v -2 h -1 V 95 H 99 V 93 H 98 V 90 H 97 V 88 H 96 V 86 H 95 V 83 H 94 V 81 H 93 V 78 H 92 V 76 H 91 V 73 H 90 V 69 H 89 V 63 H 88 V 58 H 87 V 53 H 86 V 34 h -1 v -1 h -1 v -1 h -1 v -1 h -2 v -1 h -1 v -1 h -1 v -1 h -1 v -1 h -2 v -1 h -1 v -1 h -2 v -1 h -2 v -1 h -1 v -1 h -2 v -1 h -2 v -1 z m 0,32 v -1 h 11 v 1 h 3 v 1 h 3 v 1 h 2 v 1 h 2 v 1 h 1 v 1 h 2 v 1 h 1 v 2 h 1 v 1 h 1 v 1 h 1 v 1 h 1 v 2 h 1 v 2 h 1 v 2 h 1 v 1 h -1 v -1 h -1 v -1 h -2 v -1 h -2 v -1 h -2 v -1 h -2 v -1 h -2 v -1 h -2 v -1 h -4 v -1 h -5 v -1 h -7 v 1 h -7 v 1 h -2 v 1 h -3 v 1 h -2 v 1 h -2 v 1 h -1 v 1 h -2 v 1 h -2 v 1 h -1 v -1 h 1 v -2 h 1 v -2 h 1 v -1 h 1 v -2 h 1 v -1 h 1 v -1 h 1 v -1 h 1 v -1 h 2 v -1 h 1 v -1 h 1 v -1 h 3 v -1 h 2 V 52 Z M 30,97 v -1 h 9 v 1 h 4 v 1 h 2 v 1 h 2 v 1 h 1 v 1 h 2 v 2 h 1 v 1 h 1 v 2 h -1 v 1 h -2 v 1 h -3 v 1 h -2 v 1 h -5 v 1 h -9 v -1 h -5 v -1 h -3 v -1 h -2 v -1 h -2 v -1 h -1 v -2 h 1 v -2 h 1 v -1 h 1 v -1 h 2 v -1 h 1 v -1 h 3 v -1 z m 51,0 v -1 h 9 v 1 h 4 v 1 h 2 v 1 h 2 v 1 h 1 v 1 h 1 v 1 h 1 v 1 h 1 v 2 h 1 v 1 h -1 v 1 h -2 v 1 h -3 v 1 h -3 v 1 h -5 v 1 h -8 v -1 h -5 v -1 h -3 v -1 h -2 v -1 h -2 v -1 h -1 v -2 h 1 v -2 h 1 v -1 h 1 v -1 h 1 v -1 h 2 v -1 h 3 v -1"
               style="fill:url(#linearGradient62);fill-opacity:1;fill-rule:nonzero;stroke:none"
               id="path64" /></g></g></g></g></g></svg>
